<svg width="92" height="31" viewBox="0 0 92 31" fill="none" xmlns="http://www.w3.org/2000/svg">
<path d="M36.9482 22.4103C35.6035 18.1077 33.1576 14.2678 29.8567 11.2621C29.459 8.42577 27.0802 6.15822 24.2292 6.00148C23.2274 5.94334 22.2232 6.14558 21.3259 6.58038C21.1917 6.64358 21.0227 6.58796 20.9456 6.45651C18.8602 2.91489 15.0447 0.77626 10.9906 0.874849C5.06982 1.01894 0.24518 5.84728 0.00904359 11.8663C-0.145066 15.7542 1.6794 19.4829 4.7964 21.7125V23.065C4.7964 24.5514 5.7832 25.8053 7.12296 26.192V30.1154C7.12296 30.6058 7.5132 31.0001 7.99293 31.0001H9.93671C10.4189 31.0001 10.8067 30.6058 10.8067 30.1154C10.8067 29.6275 10.4189 29.2306 9.93671 29.2306H8.86291V26.192C9.53403 25.9999 10.1132 25.5904 10.5283 25.0418C10.9409 25.5879 11.5201 25.9974 12.1912 26.192V30.1154C12.1912 30.6058 12.5789 31.0001 13.0612 31.0001H15.0049C15.4847 31.0001 15.8749 30.6058 15.8749 30.1154C15.8749 29.6275 15.4847 29.2306 15.0049 29.2306H13.9311V26.192C15.2709 25.8053 16.2577 24.5514 16.2577 23.065V22.6074C18.276 21.5912 19.9887 19.9708 21.1221 17.8979C21.2066 17.7437 21.3831 17.6729 21.5322 17.7386C22.2829 18.0673 23.0783 18.2341 23.8986 18.2341C25.5664 18.2341 27.1175 17.5541 28.2659 16.323C28.3951 16.1865 28.5144 16.0424 28.6288 15.8958C28.8375 16.0829 29.1135 16.323 29.4739 16.6441C30.7565 17.7766 31.9197 19.0506 32.9289 20.4334L35.084 23.381C35.2928 23.6666 35.606 23.8208 35.9291 23.8208C36.0931 23.8208 36.2622 23.7804 36.4212 23.697C36.891 23.4518 37.1073 22.9234 36.9482 22.4103ZM13.0612 24.5464C12.5118 24.5464 12.0321 24.2354 11.7835 23.7779C12.7132 23.7349 13.6229 23.5756 14.4954 23.3102C14.381 24.0104 13.782 24.5464 13.0612 24.5464ZM27.0031 15.1045C26.1879 15.9817 25.0842 16.4646 23.8986 16.4646C23.3169 16.4646 22.7502 16.3458 22.2208 16.1132C21.2489 15.686 20.1229 16.0854 19.6034 17.0384C17.9206 20.1149 14.7265 22.026 11.269 22.026C10.9931 22.026 10.7073 22.0134 10.399 21.983C10.1554 21.9603 9.91434 22.0437 9.73289 22.2106C9.55143 22.3799 9.44952 22.6175 9.44952 22.8653V23.065C9.44952 23.884 8.7958 24.5464 7.99293 24.5464C7.19007 24.5464 6.53635 23.884 6.53635 23.065V21.2424C6.53635 20.9415 6.38472 20.6609 6.13616 20.4966C3.25032 18.6158 1.6098 15.4155 1.74651 11.9371C1.94536 6.84834 6.02679 2.76574 11.0329 2.6444C11.1099 2.64187 11.187 2.63934 11.264 2.63934C14.6072 2.63934 17.7292 4.43417 19.4518 7.36404C19.9862 8.27409 21.137 8.63053 22.0741 8.17803C22.7204 7.8671 23.4139 7.72806 24.1347 7.76598C24.1347 7.76598 24.1347 7.76598 24.1347 7.76851C26.2823 7.88479 28.0546 9.68973 28.1689 11.8713C28.2335 13.0822 27.8184 14.2299 27.0031 15.1045ZM33.9257 19.6776C32.8618 18.224 31.6389 16.8817 30.2892 15.6885C29.8666 15.3169 29.5484 15.0338 29.2999 14.8189C29.5783 14.2451 29.7647 13.6333 29.8542 12.9937C32.2951 15.4433 34.1817 18.3984 35.3822 21.6696L33.9257 19.6776Z" fill="#87ED82"/>
<path fill-rule="evenodd" clip-rule="evenodd" d="M36.0152 26.1238V28.0001H32V20.813C32.1842 21.0678 32.3791 21.3485 32.5861 21.6591C33.8675 23.5811 35.1488 25.1386 36.0152 26.1238ZM32 17.9559C32.0077 17.9664 32.0154 17.977 32.0232 17.9877L32 17.9357V17.9559ZM32 11.966C34.1391 14.3269 35.9127 17.0746 37.1854 20.0168L38.4719 18.4979L45.0844 28.0001H49.9113L41.2641 15.7815L49.8355 5.83559H44.9329L36.2857 16.0196H36.0152V5.83559H32V11.966ZM53.4935 11.3767V28.0001H57.4113V11.3767H53.4935ZM53.8615 8.40052C54.3088 8.81178 54.8427 9.01741 55.4632 9.01741C56.0909 9.01741 56.6248 8.81178 57.0649 8.40052C57.5123 7.98205 57.7359 7.48061 57.7359 6.89619C57.7359 6.30456 57.5123 5.80312 57.0649 5.39186C56.6248 4.9734 56.0909 4.76416 55.4632 4.76416C54.8427 4.76416 54.3088 4.9734 53.8615 5.39186C53.4141 5.80312 53.1905 6.30456 53.1905 6.89619C53.1905 7.48061 53.4141 7.98205 53.8615 8.40052ZM64.8707 28.0001L60.1737 11.3767H64.1672L67.0893 23.065H67.2408L70.2278 11.3767H74.178L77.165 23.0001H77.3274L80.2062 11.3767H84.2105L79.5027 28.0001H75.4226L72.3057 16.7663H72.0785L68.9616 28.0001H64.8707ZM86.9459 11.3767V28.0001H90.8636V11.3767H86.9459ZM87.3139 8.40052C87.7612 8.81178 88.2951 9.01741 88.9156 9.01741C89.5433 9.01741 90.0772 8.81178 90.5173 8.40052C90.9646 7.98205 91.1883 7.48061 91.1883 6.89619C91.1883 6.30456 90.9646 5.80312 90.5173 5.39186C90.0772 4.9734 89.5433 4.76416 88.9156 4.76416C88.2951 4.76416 87.7612 4.9734 87.3139 5.39186C86.8665 5.80312 86.6429 6.30456 86.6429 6.89619C86.6429 7.48061 86.8665 7.98205 87.3139 8.40052Z" fill="#0D0D0D"/>
<path d="M24.5786 11.9719C25.0165 11.9719 25.3715 11.617 25.3715 11.1791C25.3715 10.7412 25.0165 10.3862 24.5786 10.3862C24.1407 10.3862 23.7858 10.7412 23.7858 11.1791C23.7858 11.617 24.1407 11.9719 24.5786 11.9719Z" fill="#0D0D0D"/>
</svg>
