<svg width="183" height="31" viewBox="0 0 183 31" fill="none" xmlns="http://www.w3.org/2000/svg">
<path fill-rule="evenodd" clip-rule="evenodd" d="M16.556 1.17581L20.6083 10.4123L30.7806 11.3572C31.5214 11.426 31.8214 12.3331 31.2626 12.819L23.5966 19.4777L25.8288 29.3068C25.9917 30.0236 25.2084 30.5837 24.5675 30.2099L15.7772 25.0754L6.98836 30.2033C6.34748 30.5772 5.56416 30.017 5.72711 29.3003L7.95791 19.4777L0.289114 12.819C-0.26963 12.3345 0.0302925 11.426 0.771153 11.3572L10.9458 10.4123L14.9981 1.17581C15.2939 0.502269 16.2603 0.502269 16.556 1.17581Z" fill="#87ED82"/>
<path fill-rule="evenodd" clip-rule="evenodd" d="M54.4181 1.17581L58.4704 10.4123L68.6426 11.3572C69.3835 11.426 69.6834 12.3331 69.1247 12.819L61.4587 19.4777L63.6908 29.3068C63.8538 30.0236 63.0705 30.5837 62.4296 30.2099L53.6393 25.0754L44.8504 30.2033C44.2095 30.5772 43.4262 30.017 43.5892 29.3003L45.82 19.4777L38.1512 12.819C37.5924 12.3345 37.8924 11.426 38.6332 11.3572L48.8079 10.4123L52.8602 1.17581C53.156 0.502269 54.1223 0.502269 54.4181 1.17581Z" fill="#87ED82"/>
<path fill-rule="evenodd" clip-rule="evenodd" d="M92.2802 1.17581L96.3324 10.4123L106.505 11.3572C107.246 11.426 107.545 12.3331 106.987 12.819L99.3207 19.4777L101.553 29.3068C101.716 30.0236 100.933 30.5837 100.292 30.2099L91.5014 25.0754L82.7125 30.2033C82.0716 30.5772 81.2883 30.017 81.4512 29.3003L83.682 19.4777L76.0132 12.819C75.4545 12.3345 75.7544 11.426 76.4953 11.3572L86.67 10.4123L90.7223 1.17581C91.018 0.502269 91.9844 0.502269 92.2802 1.17581Z" fill="#87ED82"/>
<path fill-rule="evenodd" clip-rule="evenodd" d="M130.142 1.17581L134.195 10.4123L144.367 11.3572C145.108 11.426 145.408 12.3331 144.849 12.819L137.183 19.4777L139.415 29.3068C139.578 30.0236 138.795 30.5837 138.154 30.2099L129.363 25.0754L120.575 30.2033C119.934 30.5772 119.15 30.017 119.313 29.3003L121.544 19.4777L113.875 12.819C113.317 12.3345 113.617 11.426 114.357 11.3572L124.532 10.4123L128.584 1.17581C128.88 0.502269 129.846 0.502269 130.142 1.17581Z" fill="#87ED82"/>
<path fill-rule="evenodd" clip-rule="evenodd" d="M168.004 1.17581L172.057 10.4123L182.229 11.3572C182.97 11.426 183.27 12.3331 182.711 12.819L175.045 19.4777L177.277 29.3068C177.44 30.0236 176.657 30.5837 176.016 30.2099L167.226 25.0754L158.437 30.2033C157.796 30.5772 157.012 30.017 157.175 29.3003L159.406 19.4777L151.737 12.819C151.179 12.3345 151.479 11.426 152.219 11.3572L162.394 10.4123L166.446 1.17581C166.742 0.502269 167.709 0.502269 168.004 1.17581Z" fill="#87ED82"/>
</svg>
