<svg width="94" height="94" viewBox="0 0 94 94" fill="none" xmlns="http://www.w3.org/2000/svg">
<rect x="0.5" y="0.5" width="93" height="93" rx="11.5" fill="white" stroke="#87ED82"/>
<path d="M72.1486 54.7361C70.5418 49.5951 67.6193 45.0069 63.6751 41.4154C63.1999 38.0263 60.3576 35.3169 56.9509 35.1296C55.754 35.0601 54.5541 35.3018 53.4819 35.8213C53.3215 35.8968 53.1196 35.8304 53.0275 35.6733C50.5356 31.4415 45.9766 28.8861 41.1325 29.0039C34.0578 29.1761 28.293 34.9454 28.0108 42.1373C27.8267 46.783 30.0067 51.2383 33.7311 53.9024V55.5184C33.7311 57.2945 34.9102 58.7927 36.5111 59.2549V63.9428C36.5111 64.5288 36.9774 65 37.5506 65H39.8732C40.4494 65 40.9127 64.5288 40.9127 63.9428C40.9127 63.3598 40.4494 62.8856 39.8732 62.8856H38.5901V59.2549C39.392 59.0253 40.084 58.536 40.58 57.8805C41.0731 58.533 41.7651 59.0223 42.567 59.2549V63.9428C42.567 64.5288 43.0303 65 43.6065 65H45.9291C46.5023 65 46.9686 64.5288 46.9686 63.9428C46.9686 63.3598 46.5023 62.8856 45.9291 62.8856H44.646V59.2549C46.2469 58.7927 47.426 57.2945 47.426 55.5184V54.9717C49.8377 53.7575 51.884 51.8213 53.2384 49.3444C53.3394 49.1601 53.5502 49.0756 53.7284 49.1541C54.6254 49.5468 55.5758 49.7461 56.5559 49.7461C58.5488 49.7461 60.4021 48.9336 61.7743 47.4626C61.9287 47.2995 62.0713 47.1273 62.2079 46.9521C62.4574 47.1756 62.7871 47.4626 63.2177 47.8462C64.7503 49.1994 66.1402 50.7218 67.3461 52.374L69.9211 55.896C70.1706 56.2373 70.5448 56.4216 70.9309 56.4216C71.1269 56.4216 71.3289 56.3733 71.519 56.2736C72.0803 55.9806 72.3387 55.3493 72.1486 54.7361ZM43.6065 57.2885C42.9501 57.2885 42.3769 56.917 42.0799 56.3702C43.1907 56.3189 44.2777 56.1286 45.3202 55.8114C45.1836 56.6481 44.4678 57.2885 43.6065 57.2885ZM60.2655 46.0067C59.2913 47.0548 57.9726 47.6317 56.5559 47.6317C55.8609 47.6317 55.1837 47.4898 54.5511 47.2119C53.3898 46.7014 52.0444 47.1787 51.4237 48.3174C49.413 51.9934 45.5964 54.277 41.4651 54.277C41.1354 54.277 40.7939 54.2619 40.4256 54.2256C40.1345 54.1985 39.8464 54.2981 39.6296 54.4975C39.4128 54.6999 39.291 54.9838 39.291 55.2798V55.5184C39.291 56.4971 38.5099 57.2885 37.5506 57.2885C36.5913 57.2885 35.8101 56.4971 35.8101 55.5184V53.3406C35.8101 52.9812 35.629 52.6459 35.332 52.4495C31.8837 50.2022 29.9235 46.3782 30.0869 42.2219C30.3245 36.1415 35.2013 31.2633 41.183 31.1183C41.275 31.1153 41.3671 31.1123 41.4592 31.1123C45.4539 31.1123 49.1843 33.2569 51.2425 36.7577C51.8811 37.8451 53.2562 38.271 54.3759 37.7303C55.1481 37.3588 55.9767 37.1927 56.8381 37.238C56.8381 37.238 56.8381 37.238 56.8381 37.241C59.4042 37.3799 61.5218 39.5366 61.6584 42.1434C61.7357 43.5902 61.2397 44.9616 60.2655 46.0067ZM68.5371 51.4709C67.2659 49.7341 65.8046 48.1301 64.1919 46.7044C63.687 46.2604 63.3068 45.9221 63.0098 45.6654C63.3425 44.9797 63.5652 44.2487 63.6721 43.4845C66.5887 46.4114 68.843 49.9425 70.2775 53.8511L68.5371 51.4709Z" fill="#87ED82"/>
<path d="M57.3684 42.2631C57.8916 42.2631 58.3158 41.839 58.3158 41.3158C58.3158 40.7926 57.8916 40.3684 57.3684 40.3684C56.8452 40.3684 56.421 40.7926 56.421 41.3158C56.421 41.839 56.8452 42.2631 57.3684 42.2631Z" fill="#0D0D0D"/>
</svg>
