<svg width="407" height="225" viewBox="0 0 407 225" fill="none" xmlns="http://www.w3.org/2000/svg">
<g clip-path="url(#clip0_2005_2134)">
<path d="M16.6761 22.5739H155.135C159.113 22.5739 162.343 25.8032 162.343 29.782V78.4724C162.343 82.4512 159.113 85.6804 155.135 85.6804H16.6761C12.6974 85.6804 9.46809 82.4512 9.46809 78.4724V29.782C9.46809 25.8032 12.6974 22.5739 16.6761 22.5739Z" fill="white"/>
<path d="M155.135 86.1854H16.6761C12.4238 86.1854 8.96324 82.7248 8.96324 78.4725V29.782C8.96324 25.5297 12.4238 22.0692 16.6761 22.0692H155.135C159.387 22.0692 162.848 25.5297 162.848 29.782V78.4725C162.848 82.7248 159.387 86.1854 155.135 86.1854ZM16.6761 23.0811C12.982 23.0811 9.97517 26.088 9.97517 29.782V78.4725C9.97517 82.1666 12.982 85.1735 16.6761 85.1735H155.135C158.829 85.1735 161.836 82.1666 161.836 78.4725V29.782C161.836 26.088 158.829 23.0811 155.135 23.0811H16.6761Z" fill="black"/>
<path d="M150.2 43.671H21.8181C21.5378 43.671 21.3132 43.4442 21.3132 43.1662V32.8957C21.3132 32.6154 21.5401 32.3908 21.8181 32.3908H150.197C150.478 32.3908 150.702 32.6177 150.702 32.8957V43.1662C150.702 43.4464 150.475 43.671 150.197 43.671H150.2ZM22.3251 42.6591H149.692V33.4005H22.3251V42.6591Z" fill="black"/>
<path d="M150.402 59.8689H22.0204C21.7402 59.8689 21.5156 59.642 21.5156 59.364V49.0935C21.5156 48.8133 21.7424 48.5887 22.0204 48.5887H150.4C150.68 48.5887 150.905 48.8155 150.905 49.0935V59.364C150.905 59.6443 150.678 59.8689 150.4 59.8689H150.402ZM22.5275 58.857H149.897V49.5984H22.5275V58.857Z" fill="black"/>
<path d="M149.997 75.6678H21.6179C21.3377 75.6678 21.1131 75.4409 21.1131 75.1629V64.8924C21.1131 64.6122 21.3399 64.3876 21.6179 64.3876H149.997C150.277 64.3876 150.502 64.6144 150.502 64.8924V75.1629C150.502 75.4432 150.275 75.6678 149.997 75.6678ZM22.1228 74.6559H149.49V65.3951H22.1228V74.6559Z" fill="black"/>
<path d="M130.622 280.106L113.043 168.967C112.905 167.057 112.176 165.236 110.957 163.757L87.8537 135.729C85.1604 132.462 79.9384 133.343 78.4661 137.313L66.1962 170.409C65.7269 171.676 65.5423 173.035 65.6602 174.383L75.9463 292.781L130.622 280.106Z" fill="white"/>
<path d="M75.9485 293.286C75.8417 293.286 75.7394 293.252 75.6504 293.19C75.5326 293.103 75.4569 292.97 75.4436 292.825L65.1575 174.428C65.0352 173.015 65.2309 171.565 65.7246 170.233L77.9946 137.137C78.7485 135.1 80.4788 133.67 82.6205 133.308C84.7645 132.945 86.8662 133.73 88.2473 135.407L111.35 163.434C112.643 165.002 113.403 166.904 113.55 168.932L131.124 280.028C131.166 280.291 130.997 280.54 130.739 280.6L76.0641 293.275C76.0263 293.284 75.9885 293.288 75.9507 293.288L75.9485 293.286ZM83.6391 134.235C83.3567 134.235 83.072 134.26 82.7873 134.306C81.0059 134.606 79.5692 135.796 78.942 137.489L66.6721 170.584C66.2317 171.774 66.056 173.073 66.165 174.339L76.3999 292.156L130.048 279.721L112.542 169.048C112.407 167.188 111.724 165.485 110.565 164.079L87.4622 136.052C86.497 134.882 85.1114 134.235 83.6369 134.235H83.6391Z" fill="black"/>
<path d="M87.0352 288.567C86.7706 288.567 86.5459 288.36 86.5304 288.091L79.4046 169.889C79.4046 169.871 79.4046 169.853 79.4046 169.835L80.7902 139.166C80.8569 137.689 81.9511 136.871 83.0053 136.717C84.0595 136.566 85.3405 137.033 85.8276 138.43L96.9855 170.442C96.9944 170.469 97.0033 170.498 97.0077 170.527L114.855 279.631C114.9 279.906 114.713 280.167 114.437 280.211C114.162 280.251 113.901 280.069 113.857 279.793L96.0158 170.732L84.8712 138.761C84.5532 137.852 83.7459 137.629 83.1499 137.718C82.5538 137.805 81.8421 138.248 81.7999 139.211L80.4165 169.853L87.5401 288.028C87.5579 288.306 87.3444 288.547 87.0663 288.564C87.0552 288.564 87.0463 288.564 87.0352 288.564V288.567Z" fill="black"/>
<path d="M171.53 264.318L148.676 153.006C148.291 151.129 147.33 149.419 145.929 148.111L119.375 123.331C116.279 120.442 111.217 121.994 110.274 126.124L102.416 160.534C102.116 161.853 102.11 163.223 102.401 164.544L128.013 280.596L171.528 264.32L171.53 264.318Z" fill="white"/>
<path d="M128.015 281.098C127.93 281.098 127.848 281.078 127.773 281.036C127.644 280.965 127.552 280.842 127.521 280.7L101.909 164.649C101.605 163.263 101.609 161.8 101.925 160.419L109.782 126.006C110.265 123.889 111.793 122.245 113.87 121.607C115.945 120.971 118.134 121.474 119.722 122.957L146.276 147.737C147.762 149.125 148.765 150.911 149.174 152.901L172.028 264.213C172.079 264.458 171.944 264.701 171.71 264.789L128.195 281.065C128.137 281.087 128.077 281.096 128.017 281.096L128.015 281.098ZM115.652 122.352C115.158 122.352 114.66 122.426 114.168 122.577C112.442 123.106 111.172 124.474 110.77 126.233L102.912 160.645C102.63 161.884 102.626 163.192 102.899 164.433L128.384 279.915L170.95 263.996L148.185 153.108C147.818 151.322 146.921 149.723 145.589 148.48L119.034 123.7C118.091 122.819 116.89 122.354 115.654 122.354L115.652 122.352Z" fill="black"/>
<path d="M117.266 126.496L132.496 156.782L159.801 268.372L138.801 276.575L115.943 158.201L113.323 127.612C113.127 125.323 116.234 124.445 117.266 126.498V126.496Z" fill="white"/>
<path d="M138.801 277.079C138.717 277.079 138.632 277.057 138.557 277.017C138.426 276.944 138.332 276.817 138.305 276.67L115.447 158.297C115.442 158.279 115.44 158.261 115.44 158.243L112.82 127.654C112.694 126.182 113.672 125.23 114.697 124.939C115.723 124.645 117.055 124.948 117.72 126.269L132.95 156.555C132.968 156.589 132.981 156.626 132.99 156.662L160.294 268.252C160.354 268.499 160.223 268.75 159.987 268.844L138.988 277.046C138.928 277.068 138.866 277.082 138.804 277.082L138.801 277.079ZM116.446 158.132L139.184 275.883L159.207 268.063L132.02 156.96L116.817 126.725C116.383 125.864 115.556 125.75 114.975 125.913C114.397 126.077 113.75 126.609 113.832 127.57L116.45 158.132H116.446Z" fill="black"/>
<path d="M250.198 273.712L266.562 177.695C266.838 176.076 266.52 174.454 265.653 173.055L249.213 146.554C247.296 143.465 242.034 143.52 239.752 146.652L220.732 172.771C220.003 173.772 219.533 174.886 219.36 176.029L203.97 276.559L250.198 273.708V273.712Z" fill="white"/>
<path d="M203.97 277.069C203.827 277.069 203.692 277.008 203.596 276.904C203.494 276.791 203.447 276.637 203.469 276.486L218.859 175.956C219.046 174.739 219.551 173.536 220.323 172.475L239.343 146.356C240.566 144.679 242.705 143.694 244.947 143.77C246.955 143.845 248.71 144.786 249.642 146.29L266.082 172.791C267.021 174.303 267.359 176.029 267.061 177.782L250.696 273.799C250.656 274.031 250.463 274.204 250.229 274.22L204.001 277.071C204.001 277.071 203.981 277.071 203.97 277.071V277.069ZM244.685 144.777C242.866 144.777 241.146 145.598 240.161 146.952L221.141 173.071C220.465 174.001 220.02 175.051 219.858 176.109L204.563 276.021L249.767 273.234L266.064 177.613C266.32 176.107 266.031 174.626 265.224 173.325L248.784 146.823C248.019 145.589 246.606 144.844 244.909 144.782C244.834 144.779 244.76 144.777 244.685 144.777Z" fill="black"/>
<path d="M246.164 148.629L250.142 176.905L237.848 274.21L215.421 275.869L234.176 174.107L242.098 148.595C242.692 146.687 245.895 146.714 246.166 148.629H246.164Z" fill="white"/>
<path d="M215.423 276.374C215.281 276.374 215.143 276.314 215.048 276.205C214.943 276.09 214.898 275.93 214.927 275.776L233.683 174.014C233.687 173.994 233.691 173.974 233.696 173.956L241.618 148.444C242.034 147.108 243.393 146.587 244.482 146.681C245.663 146.776 246.522 147.513 246.669 148.558L250.647 176.834C250.654 176.879 250.654 176.923 250.647 176.967L238.355 274.273C238.324 274.511 238.131 274.695 237.89 274.713L215.463 276.372C215.45 276.372 215.439 276.372 215.426 276.372L215.423 276.374ZM234.668 174.227L216.037 275.316L237.399 273.737L249.631 176.907L245.661 148.698C245.566 148.022 244.945 147.733 244.393 147.688C243.691 147.633 242.828 147.937 242.576 148.742L234.663 174.225L234.668 174.227Z" fill="black"/>
<path d="M210.47 266.382L231.092 124.258C231.439 121.861 231.034 119.416 229.928 117.259L209.003 76.4039C206.563 71.64 199.877 71.3131 196.986 75.8167L172.873 113.347C171.948 114.786 171.354 116.412 171.134 118.106L151.756 267.047L210.468 266.382H210.47Z" fill="white"/>
<path d="M151.759 267.552C151.614 267.552 151.476 267.49 151.38 267.383C151.283 267.274 151.238 267.127 151.256 266.983L170.634 118.042C170.863 116.283 171.49 114.566 172.449 113.074L196.561 75.5436C198.018 73.2751 200.5 71.994 203.189 72.1319C205.882 72.2631 208.224 73.7755 209.452 76.1752L230.378 117.03C231.536 119.292 231.954 121.817 231.59 124.332L210.969 266.456C210.933 266.702 210.724 266.885 210.473 266.889L151.761 267.554H151.754L151.759 267.552ZM202.811 73.1327C200.611 73.1327 198.612 74.2225 197.411 76.0907L173.298 113.621C172.42 114.989 171.846 116.561 171.637 118.174L152.335 266.536L210.032 265.882L230.591 124.187C230.925 121.881 230.542 119.566 229.479 117.493L208.553 76.6378C207.49 74.5628 205.469 73.2573 203.14 73.1439C203.031 73.1394 202.922 73.135 202.813 73.135L202.811 73.1327Z" fill="black"/>
<path d="M205.135 79.2642L210.237 121.803L194.789 266.169L166.306 266.902L189.954 116.383L199.971 78.8995C200.72 76.095 204.79 76.3841 205.137 79.2664L205.135 79.2642Z" fill="white"/>
<path d="M166.304 267.407C166.159 267.407 166.019 267.345 165.923 267.236C165.823 267.122 165.781 266.971 165.803 266.824L189.451 116.305C189.454 116.287 189.458 116.27 189.462 116.254L199.479 78.7704C199.942 77.0379 201.448 76.3506 202.738 76.4463C204.025 76.5374 205.422 77.4271 205.635 79.2063L210.737 121.745C210.742 121.783 210.742 121.821 210.737 121.858L195.289 266.224C195.263 266.475 195.054 266.669 194.8 266.675L166.317 267.409H166.304V267.407ZM190.448 116.485L166.9 266.38L194.333 265.672L209.728 121.805L204.632 79.3241C204.477 78.0342 203.478 77.5093 202.669 77.4515C201.861 77.3893 200.794 77.7718 200.46 79.0261L190.45 116.485H190.448Z" fill="black"/>
<path d="M256.219 291.079L286.567 224.43C287.179 223.342 287.437 222.092 287.306 220.851L284.824 197.344C284.535 194.604 281.383 193.207 279.159 194.835L260.618 208.399C259.906 208.92 259.321 209.589 258.901 210.363L221.986 278.333L256.219 291.077V291.079Z" fill="white"/>
<path d="M256.219 291.587C256.161 291.587 256.101 291.576 256.043 291.555L221.811 278.812C221.673 278.761 221.566 278.652 221.513 278.516C221.462 278.378 221.473 278.227 221.542 278.098L258.456 210.125C258.91 209.291 259.552 208.555 260.32 207.995L278.861 194.43C280.053 193.559 281.572 193.394 282.922 193.992C284.272 194.59 285.173 195.825 285.326 197.295L287.808 220.803C287.951 222.155 287.675 223.496 287.008 224.681L256.679 291.291C256.594 291.475 256.412 291.587 256.219 291.587ZM222.709 278.065L255.954 290.441L286.107 224.221C286.69 223.18 286.923 222.048 286.803 220.905L284.321 197.397C284.206 196.292 283.529 195.364 282.513 194.913C281.497 194.461 280.356 194.586 279.46 195.242L260.918 208.806C260.271 209.28 259.728 209.901 259.346 210.603L222.709 278.062V278.065Z" fill="black"/>
<path d="M247.718 285.11C247.649 285.11 247.578 285.097 247.511 285.066C247.256 284.952 247.142 284.652 247.258 284.398L276.522 219.221L281.944 197.88C282.071 197.377 281.788 197.043 281.479 196.899C281.172 196.756 280.734 196.75 280.427 197.168L268.682 213.301L231.038 278.447C230.898 278.689 230.589 278.772 230.347 278.631C230.104 278.491 230.022 278.182 230.162 277.94L267.819 212.769C267.828 212.754 267.837 212.738 267.848 212.725L279.609 196.572C280.151 195.829 281.076 195.591 281.908 195.982C282.742 196.374 283.149 197.237 282.922 198.129L277.489 219.513C277.482 219.542 277.471 219.568 277.46 219.595L248.179 284.812C248.094 284.999 247.91 285.11 247.716 285.11H247.718Z" fill="black"/>
<path d="M246.76 292.792L212.312 264.387L188.917 264.607L179.532 257.315L170.507 200.255C170.414 198.952 169.915 197.711 169.086 196.704L153.342 177.604C151.507 175.377 147.949 175.978 146.946 178.685L138.583 201.238C138.263 202.103 138.139 203.029 138.219 203.947L142.251 250.36L138.232 251.497L130.986 282.402L71.5938 270.261L57.865 290.906L94.2032 310.807L116.639 324.705L131.642 322.329L141.837 320.581L151.156 321.825L173.171 313.687L186.44 315.691L193.065 301.301L221.966 299.802L255.142 315.07L260.98 305.936L246.758 292.797L246.76 292.792Z" fill="white"/>
<path d="M116.641 325.207C116.548 325.207 116.455 325.181 116.374 325.132L93.9386 311.234L57.6248 291.347C57.5002 291.278 57.4113 291.162 57.3757 291.024C57.3423 290.886 57.3668 290.742 57.4469 290.624L71.1757 269.978C71.2892 269.807 71.496 269.722 71.6984 269.762L130.608 281.805L137.743 251.379C137.785 251.201 137.921 251.058 138.099 251.007L141.715 249.984L137.718 203.989C137.632 203.002 137.77 201.99 138.114 201.062L146.477 178.509C147.01 177.065 148.236 176.053 149.753 175.795C151.269 175.54 152.759 176.096 153.738 177.283L169.482 196.383C170.385 197.477 170.916 198.805 171.016 200.22L180.006 257.039L189.095 264.1L212.312 263.882C212.428 263.871 212.548 263.922 212.639 263.998L247.087 292.403C247.087 292.403 247.1 292.416 247.109 292.421L261.332 305.56C261.512 305.727 261.547 305.998 261.414 306.203L255.576 315.337C255.438 315.548 255.167 315.628 254.937 315.524L221.875 300.307L193.403 301.784L186.907 315.895C186.814 316.1 186.593 316.215 186.371 316.184L173.231 314.201L151.338 322.294C151.26 322.323 151.178 322.332 151.096 322.32L141.853 321.088L131.734 322.823L116.724 325.201C116.697 325.205 116.67 325.207 116.644 325.207H116.641ZM58.5922 290.724L94.4479 310.36L116.748 324.171L131.565 321.824L141.755 320.076C141.806 320.067 141.857 320.067 141.908 320.074L151.103 321.3L173 313.204C173.08 313.173 173.167 313.166 173.251 313.177L186.144 315.123L192.609 301.081C192.687 300.91 192.854 300.796 193.043 300.787L221.944 299.288C222.026 299.286 222.107 299.3 222.182 299.335L254.957 314.418L260.331 306.014L246.431 293.172L212.136 264.892L188.926 265.11H188.922C188.809 265.11 188.7 265.072 188.611 265.003L179.225 257.71C179.123 257.63 179.056 257.517 179.036 257.39L170.011 200.331C169.92 199.083 169.466 197.953 168.699 197.021L152.955 177.922C152.21 177.019 151.074 176.596 149.919 176.79C148.763 176.985 147.831 177.757 147.422 178.856L139.059 201.409C138.768 202.199 138.65 203.06 138.724 203.898L142.756 250.311C142.776 250.554 142.622 250.776 142.389 250.843L138.657 251.897L131.478 282.513C131.415 282.78 131.153 282.949 130.884 282.893L71.8274 270.821L58.5922 290.724Z" fill="black"/>
<path d="M171.403 275.723L159.24 201.372L151.636 179.556C151.12 178.077 148.943 178.395 148.874 179.961L147.931 200.862L158.613 278.956L167 284.859L171.403 275.727V275.723Z" fill="white"/>
<path d="M167 285.362C166.897 285.362 166.795 285.33 166.708 285.268L158.322 279.366C158.206 279.286 158.13 279.161 158.113 279.021L147.431 200.927C147.426 200.896 147.426 200.867 147.426 200.836L148.369 179.936C148.411 178.985 149.074 178.253 150.017 178.115C150.962 177.977 151.803 178.489 152.117 179.387L159.721 201.202C159.729 201.229 159.738 201.258 159.743 201.287L171.906 275.638C171.924 275.74 171.906 275.845 171.861 275.938L167.458 285.072C167.393 285.206 167.273 285.304 167.129 285.342C167.087 285.353 167.044 285.357 167.002 285.357L167 285.362ZM159.084 278.667L166.804 284.101L170.878 275.649L158.749 201.498L151.16 179.725C150.976 179.198 150.524 179.067 150.164 179.12C149.801 179.174 149.406 179.427 149.381 179.985L148.44 200.84L159.087 278.669L159.084 278.667Z" fill="black"/>
<path d="M18.4265 202.012L46.3979 307.003H56.5684L38.7673 215.785L18.4265 202.012Z" fill="white"/>
<path d="M56.5683 307.51H46.3979C46.1688 307.51 45.9687 307.357 45.9086 307.134L17.9371 202.141C17.8838 201.936 17.9616 201.72 18.1328 201.598C18.3041 201.476 18.5354 201.474 18.7089 201.591L39.052 215.365C39.1632 215.44 39.2388 215.556 39.2655 215.687L57.0665 306.908C57.0954 307.057 57.0576 307.21 56.9598 307.326C56.8641 307.441 56.7196 307.51 56.5683 307.51ZM46.7849 306.498H55.9545L38.3114 216.085L19.2626 203.188L46.7849 306.498Z" fill="black"/>
<path d="M37.4974 217.177L73.7333 213.554L90.8961 302.361L56.5684 307.448L37.4974 217.177Z" fill="white"/>
<path d="M56.5684 307.953C56.3326 307.953 56.1236 307.788 56.0746 307.552L37.0037 217.282C36.9748 217.142 37.0037 216.995 37.0904 216.879C37.1749 216.764 37.3062 216.688 37.4485 216.675L73.6844 213.052C73.9424 213.025 74.1826 213.203 74.2315 213.459L91.3965 302.266C91.4232 302.402 91.3921 302.542 91.312 302.655C91.2319 302.769 91.1096 302.842 90.9739 302.862L56.6462 307.948C56.6218 307.953 56.5973 307.953 56.5706 307.953H56.5684ZM38.109 217.624L56.9665 306.879L90.3023 301.941L73.3264 214.106L38.1112 217.627L38.109 217.624Z" fill="black"/>
<path d="M73.7333 213.555L90.8961 302.362L101.069 298.548L82.6316 199.517L73.7333 213.555Z" fill="white"/>
<path d="M90.8961 302.869C90.8116 302.869 90.7248 302.846 90.6492 302.804C90.5202 302.731 90.429 302.604 90.4001 302.459L73.2351 213.652C73.2107 213.525 73.2351 213.394 73.3041 213.285L82.2046 199.247C82.3158 199.071 82.5204 198.98 82.7272 199.023C82.9319 199.063 83.0898 199.223 83.1276 199.427L101.562 298.458C101.607 298.699 101.473 298.939 101.242 299.026L91.0718 302.84C91.0139 302.862 90.9539 302.871 90.8938 302.871L90.8961 302.869ZM74.2671 213.654L91.2786 301.679L100.493 298.223L82.3692 200.873L74.2649 213.654H74.2671Z" fill="black"/>
<path d="M30.5051 185.478L18.4265 202.232L37.4975 217.177L73.7334 213.554L82.6317 199.516L62.9247 184.12L30.5051 185.478Z" fill="white"/>
<path d="M37.4977 217.682C37.3842 217.682 37.2752 217.644 37.1863 217.576L18.1153 202.632C17.9018 202.466 17.8573 202.159 18.0175 201.938L30.0961 185.183C30.1873 185.056 30.3296 184.98 30.4853 184.974L62.9071 183.615C63.0316 183.61 63.145 183.648 63.2407 183.721L82.9477 199.118C83.1523 199.279 83.2035 199.568 83.0633 199.788L74.1628 213.826C74.0805 213.957 73.9404 214.044 73.787 214.059L37.551 217.682C37.5332 217.682 37.5177 217.684 37.4999 217.684L37.4977 217.682ZM19.1206 202.134L37.6489 216.653L73.4378 213.074L81.9602 199.632L62.7603 184.631L30.77 185.972L19.1184 202.134H19.1206Z" fill="black"/>
<path d="M90.1311 209.685L84.1418 307.335L92.8155 310.22L103.54 227.293L90.1311 209.685Z" fill="white"/>
<path d="M92.8155 310.727C92.7621 310.727 92.7087 310.718 92.6553 310.7L83.9817 307.815C83.7637 307.742 83.6214 307.533 83.6369 307.304L89.6262 209.654C89.6396 209.442 89.7819 209.262 89.9843 209.2C90.1867 209.138 90.4046 209.209 90.5336 209.378L103.942 226.986C104.022 227.092 104.058 227.224 104.042 227.357L93.3181 310.284C93.2981 310.435 93.2136 310.566 93.0846 310.646C93.0023 310.698 92.9089 310.724 92.8155 310.724V310.727ZM84.6711 306.979L92.3929 309.548L103.013 227.437L90.5536 211.075L84.6711 306.979Z" fill="black"/>
<path d="M105.183 198.823L90.1311 209.685L102.154 227.835L134.08 235.023L145.651 225.578L133.215 206.86L105.183 198.823Z" fill="white"/>
<path d="M134.082 235.53C134.044 235.53 134.009 235.526 133.971 235.517L102.045 228.329C101.918 228.3 101.807 228.224 101.734 228.115L89.7107 209.963C89.5617 209.736 89.6151 209.431 89.8375 209.273L104.89 198.411C105.016 198.32 105.177 198.291 105.326 198.336L133.357 206.371C133.473 206.404 133.573 206.478 133.64 206.578L146.076 225.295C146.221 225.511 146.176 225.802 145.974 225.967L134.405 235.412C134.313 235.488 134.2 235.526 134.084 235.526L134.082 235.53ZM102.465 227.388L133.953 234.478L144.978 225.477L132.897 207.296L105.281 199.379L90.8227 209.811L102.465 227.388Z" fill="black"/>
<path d="M166.204 144.421C166.204 168.256 185.344 187.576 208.954 187.576C232.564 187.576 251.704 168.254 251.704 144.421C251.704 120.589 232.564 101.267 208.954 101.267C185.344 101.267 166.204 120.589 166.204 144.421ZM171.837 144.421C171.837 123.729 188.455 106.953 208.951 106.953C229.448 106.953 246.068 123.729 246.068 144.421C246.068 165.114 229.45 181.889 208.951 181.889C188.453 181.889 171.837 165.114 171.837 144.421Z" fill="#87ED82"/>
<path d="M169.602 198.579C170.798 199.464 172.478 199.202 173.352 197.994L185.835 180.796L181.505 177.593L169.021 194.791C168.145 195.999 168.405 197.694 169.6 198.577L169.602 198.579Z" fill="#87ED82"/>
<path d="M165.372 201.506C164.858 201.168 164.516 200.625 164.42 200.014C164.104 197.952 163.675 193.13 165.941 190.321C168.879 186.678 173.914 185.237 174.501 186.256C175.089 187.272 167.62 193.795 170.138 197.607C170.138 197.607 172.444 198.334 175.722 195.61C176.181 195.228 176.897 195.483 177.003 196.075C177.15 196.889 177.077 198.132 176.183 199.811C175.04 201.955 172.953 203.434 171.628 204.208C170.923 204.62 170.051 204.595 169.371 204.146L165.376 201.508L165.372 201.506Z" fill="white"/>
<path d="M170.547 205.006C170.04 205.006 169.535 204.859 169.09 204.566L165.094 201.928C164.464 201.512 164.037 200.843 163.922 200.091C163.61 198.052 163.143 192.985 165.548 190.005C168.092 186.849 172.071 185.315 173.843 185.442C174.51 185.493 174.808 185.775 174.94 186.004C175.302 186.629 174.69 187.459 173.476 189.109C171.768 191.431 169.206 194.909 170.458 197.162C171.01 197.251 172.86 197.333 175.398 195.223C175.756 194.927 176.232 194.845 176.672 195.005C177.11 195.165 177.419 195.532 177.502 195.986C177.651 196.815 177.619 198.192 176.628 200.049C175.46 202.237 173.403 203.756 171.882 204.644C171.466 204.886 171.005 205.008 170.547 205.008V205.006ZM165.652 201.083L169.649 203.721C170.171 204.066 170.832 204.083 171.374 203.77C172.526 203.096 174.626 201.655 175.738 199.573C176.592 197.972 176.628 196.835 176.507 196.164C176.483 196.023 176.374 195.97 176.327 195.954C176.281 195.937 176.158 195.908 176.047 195.999C172.598 198.868 170.093 198.123 169.989 198.092C169.878 198.056 169.782 197.985 169.72 197.887C167.847 195.054 170.747 191.115 172.664 188.508C173.209 187.77 173.874 186.867 174.008 186.489C173.921 186.462 173.725 186.422 173.349 186.456C171.724 186.598 168.472 187.99 166.337 190.639C164.186 193.308 164.631 198.032 164.923 199.938C164.994 200.407 165.261 200.825 165.652 201.083Z" fill="black"/>
<path d="M75.8906 247.67C80.0851 232.724 86.7483 212.797 98.3443 209.808L98.1597 200.747C98.1597 200.747 118.865 204.593 120.502 216.364C129.603 218.766 139.406 217.994 148.167 213.742C153.395 211.205 158.78 205.471 163.98 199.72L172.584 205.324C172.584 205.324 154.603 249.413 114.135 237.208C114.135 237.208 101.736 246.518 103.462 269.683C103.462 269.683 87.0841 283.04 64.5993 270.897C64.5993 270.897 71.6939 262.615 75.8884 247.67H75.8906Z" fill="black"/>
<path d="M107.123 223.775C107.123 223.775 107.109 223.775 107.103 223.775C106.825 223.764 106.607 223.528 106.618 223.25C107.038 212.828 102.179 205.493 102.13 205.42C101.974 205.189 102.034 204.875 102.265 204.717C102.497 204.561 102.812 204.622 102.968 204.853C103.177 205.162 108.063 212.521 107.63 223.29C107.619 223.561 107.394 223.775 107.125 223.775H107.123Z" fill="white"/>
<path d="M123.774 191.015C123.774 191.015 129.409 189.857 128.853 193.464C128.297 197.071 128.1 205.571 125.213 206.615C122.328 207.658 119.161 203.563 117.177 205.38C115.191 207.197 113.815 209.924 112.836 213.291C112.238 213.505 110.983 213.854 109.509 213.493C106.533 212.768 105.377 209.822 105.266 209.521C105.999 208.75 106.765 207.809 107.53 206.715C108.722 205.011 110.032 202.707 110.508 200.301L123.776 191.013L123.774 191.015Z" fill="white"/>
<path d="M110.808 214.154C110.361 214.154 109.885 214.105 109.387 213.985C106.18 213.204 104.921 210.055 104.79 209.699C104.723 209.517 104.763 209.314 104.896 209.174C105.63 208.403 106.378 207.477 107.111 206.428C108.17 204.913 109.533 202.605 110.007 200.205C110.032 200.076 110.107 199.965 110.214 199.889L123.482 190.602C123.538 190.561 123.603 190.535 123.671 190.521C124.032 190.448 127.221 189.841 128.691 191.238C129.28 191.798 129.503 192.572 129.352 193.542C129.243 194.253 129.143 195.192 129.038 196.184C128.569 200.623 127.986 206.15 125.384 207.09C123.789 207.666 122.19 206.904 120.78 206.232C119.239 205.496 118.256 205.082 117.518 205.754C115.716 207.402 114.344 209.913 113.321 213.433C113.276 213.589 113.159 213.714 113.005 213.769C112.451 213.967 111.688 214.158 110.808 214.158V214.154ZM105.855 209.628C106.209 210.411 107.332 212.441 109.627 213.002C110.728 213.271 111.722 213.111 112.425 212.893C113.494 209.323 114.938 206.741 116.835 205.006C118.114 203.837 119.69 204.588 121.216 205.316C122.508 205.932 123.845 206.57 125.041 206.136C127.05 205.411 127.641 199.791 128.035 196.075C128.142 195.07 128.242 194.122 128.355 193.384C128.453 192.754 128.335 192.29 127.997 191.967C127.108 191.122 124.886 191.32 123.978 191.489L110.961 200.598C110.528 202.605 109.511 204.76 107.943 207.004C107.254 207.989 106.553 208.87 105.857 209.628H105.855Z" fill="black"/>
<path d="M123.329 200.474C123.271 200.474 123.213 200.465 123.156 200.443C121.185 199.726 120.513 197.267 120.722 195.145C120.909 193.246 121.734 191.911 122.82 191.744C125.295 191.366 126.134 195.154 126.167 195.314C126.225 195.587 126.051 195.854 125.778 195.914C125.506 195.972 125.235 195.799 125.177 195.525C125.171 195.494 124.49 192.525 122.973 192.743C122.397 192.832 121.861 193.906 121.73 195.243C121.565 196.917 122.048 198.961 123.503 199.491C123.765 199.586 123.901 199.875 123.805 200.138C123.729 200.342 123.536 200.471 123.329 200.471V200.474Z" fill="black"/>
<path d="M125.119 193.866C125.119 193.866 130.902 194.94 130.717 189.211C130.533 183.482 126.476 177.862 115.618 180.104C115.618 180.104 113.152 172.569 106.858 174.749C100.566 176.928 102.601 186.829 108.893 187.701C108.893 187.701 103.631 197.382 110.318 200.919C112.011 201.813 113.979 201.971 115.845 201.561C117.82 201.13 120.38 200.145 121.414 197.914C121.414 197.914 120.513 193.304 122.27 192.369C124.03 191.435 125.115 193.866 125.115 193.866H125.119Z" fill="black"/>
<path d="M353.339 89.3344H269.638C265.657 89.3344 262.43 92.5615 262.43 96.5424V122.628C262.43 126.609 265.657 129.836 269.638 129.836H353.339C357.32 129.836 360.547 126.609 360.547 122.628V96.5424C360.547 92.5615 357.32 89.3344 353.339 89.3344Z" fill="white"/>
<path d="M353.341 130.341H269.638C265.386 130.341 261.925 126.88 261.925 122.628V96.5402C261.925 92.2878 265.386 88.8273 269.638 88.8273H353.341C357.594 88.8273 361.054 92.2878 361.054 96.5402V122.628C361.054 126.88 357.594 130.341 353.341 130.341ZM269.638 89.8392C265.944 89.8392 262.937 92.8461 262.937 96.5402V122.628C262.937 126.322 265.944 129.329 269.638 129.329H353.341C357.035 129.329 360.042 126.322 360.042 122.628V96.5402C360.042 92.8461 357.035 89.8392 353.341 89.8392H269.638Z" fill="black"/>
<path d="M352.754 103.055H270.359C270.079 103.055 269.854 102.828 269.854 102.55V95.9577C269.854 95.6775 270.081 95.4529 270.359 95.4529H352.754C353.034 95.4529 353.259 95.6797 353.259 95.9577V102.55C353.259 102.83 353.032 103.055 352.754 103.055ZM270.864 102.043H352.249V96.4626H270.864V102.043Z" fill="black"/>
<path d="M352.883 113.452H270.488C270.208 113.452 269.983 113.225 269.983 112.947V106.355C269.983 106.075 270.21 105.85 270.488 105.85H352.883C353.163 105.85 353.388 106.077 353.388 106.355V112.947C353.388 113.227 353.161 113.452 352.883 113.452ZM270.993 112.44H352.378V106.86H270.993V112.44Z" fill="black"/>
<path d="M352.625 123.591H270.23C269.95 123.591 269.725 123.364 269.725 123.086V116.494C269.725 116.214 269.952 115.989 270.23 115.989H352.625C352.905 115.989 353.13 116.216 353.13 116.494V123.086C353.13 123.366 352.903 123.591 352.625 123.591ZM270.735 122.581H352.12V117.001H270.735V122.581Z" fill="black"/>
<path d="M34.7863 107.216C34.7441 107.216 34.6996 107.211 34.6573 107.198C34.3882 107.127 34.2259 106.849 34.2993 106.58L35.3068 102.788C35.3779 102.519 35.6559 102.361 35.925 102.43C36.1941 102.501 36.3565 102.779 36.2831 103.048L35.2756 106.84C35.2156 107.067 35.011 107.216 34.7863 107.216Z" fill="black"/>
<path d="M32.4422 116.052C32.4 116.052 32.3555 116.047 32.3132 116.034C32.0441 115.963 31.8818 115.685 31.9552 115.416L32.9626 111.624C33.0338 111.355 33.3118 111.195 33.5809 111.266C33.85 111.337 34.0124 111.615 33.939 111.884L32.9315 115.676C32.8715 115.903 32.6669 116.052 32.4422 116.052Z" fill="black"/>
<path d="M31.5948 109.068C31.5526 109.068 31.5081 109.064 31.4658 109.051L27.6739 108.045C27.4048 107.974 27.2424 107.696 27.3136 107.427C27.3848 107.158 27.6628 106.998 27.9319 107.069L31.7238 108.074C31.9929 108.145 32.1553 108.423 32.0841 108.693C32.0241 108.919 31.8195 109.068 31.5948 109.068Z" fill="black"/>
<path d="M40.4309 111.412C40.3887 111.412 40.3442 111.408 40.3019 111.394L36.51 110.387C36.2409 110.316 36.0785 110.038 36.1519 109.769C36.2231 109.5 36.5011 109.339 36.7702 109.411L40.5622 110.418C40.8313 110.489 40.9936 110.767 40.9202 111.036C40.8602 111.263 40.6556 111.412 40.4309 111.412Z" fill="black"/>
<path d="M304.88 56.5795C304.722 56.5795 304.566 56.5061 304.469 56.3682C304.386 56.2526 296.04 44.8011 277.193 33.3474C259.797 22.7744 229.639 10.0397 184.763 9.41252C184.483 9.40807 184.26 9.179 184.265 8.89877C184.269 8.61855 184.489 8.38948 184.779 8.4006C229.915 9.03222 260.264 21.8626 277.774 32.5156C296.776 44.0739 305.209 55.6632 305.294 55.7789C305.456 56.0057 305.405 56.3215 305.178 56.4839C305.089 56.5484 304.987 56.5795 304.884 56.5795H304.88Z" fill="black"/>
<path d="M319.165 57.9492C318.991 57.9492 318.822 57.8602 318.727 57.6979C318.658 57.58 311.628 45.7149 294.167 32.8623C278.047 20.9971 249.486 5.84046 204.966 1.00989C204.688 0.978753 204.488 0.729661 204.517 0.451659C204.548 0.173656 204.793 -0.0242788 205.075 0.00240939C249.856 4.85967 278.594 20.1298 294.819 32.0839C312.426 45.0566 319.532 57.0663 319.601 57.1864C319.741 57.4288 319.659 57.7379 319.418 57.878C319.338 57.9247 319.252 57.947 319.165 57.947V57.9492Z" fill="black"/>
<path d="M338.089 66.1402C336.39 66.1402 335.198 65.6998 334.484 64.8147C333.59 63.7049 333.841 62.3727 334.086 61.0805C334.317 59.864 334.533 58.7164 333.881 57.7112C333.101 56.5102 331.573 56.3478 329.956 56.1766C328.181 55.9875 326.346 55.7941 325.29 54.2106C324.354 52.8072 324.698 51.2593 325.003 49.8915C325.294 48.5816 325.546 47.4518 324.789 46.5599C324.144 45.7993 323.146 45.6481 322.087 45.4902C320.851 45.3034 319.447 45.0943 318.658 43.7599C318.244 43.0615 318.213 42.4233 318.186 41.8606C318.16 41.3068 318.137 40.8687 317.77 40.4172C317.179 39.6922 316.049 39.3608 314.414 39.4364C314.148 39.4475 313.898 39.234 313.887 38.9538C313.874 38.6758 314.09 38.4378 314.37 38.4267C316.338 38.3355 317.748 38.7914 318.556 39.7767C319.136 40.4861 319.169 41.1911 319.201 41.8116C319.225 42.3209 319.247 42.7635 319.532 43.2439C320.077 44.1647 321.08 44.3137 322.241 44.4871C323.382 44.6584 324.672 44.8519 325.563 45.9038C326.644 47.1782 326.313 48.6683 325.993 50.1095C325.708 51.3927 325.439 52.6048 326.135 53.6479C326.929 54.8377 328.452 54.9979 330.065 55.1691C331.846 55.3581 333.688 55.5516 334.733 57.1574C335.607 58.5007 335.329 59.9708 335.084 61.2651C334.864 62.4261 334.675 63.4291 335.276 64.1742C336.123 65.2239 338.256 65.3996 341.443 64.6835C341.716 64.619 341.986 64.7924 342.048 65.066C342.11 65.3395 341.939 65.6087 341.665 65.6709C340.291 65.9801 339.101 66.1357 338.094 66.1357L338.089 66.1402Z" fill="black"/>
<path d="M334.066 177.644C341.848 176.765 358.314 175.204 369.897 176.167C373.458 176.463 376.836 177.853 379.565 180.159C387.792 187.105 405.615 204.516 405.848 225.118L387.589 222.469C387.589 222.469 394.037 245.57 393.596 249.282C393.156 252.993 381.856 259.31 367.72 254.13C353.586 248.948 333.243 249.58 326.658 254.13L326.022 225.629H298.246C298.246 225.629 307.431 195.736 325.252 181.304C327.774 179.263 330.841 178.008 334.066 177.644Z" fill="black"/>
<path d="M298.246 225.629C298.246 225.629 296.073 235.568 305.952 238.553C315.831 241.537 325.217 223.552 325.217 223.552L318.338 219.564L298.246 225.629Z" fill="white"/>
<path d="M308.229 239.396C307.429 239.396 306.622 239.282 305.805 239.036C295.595 235.951 297.728 225.625 297.752 225.52C297.792 225.34 297.926 225.198 298.099 225.144L318.191 219.079C318.324 219.039 318.469 219.055 318.591 219.126L325.47 223.114C325.704 223.249 325.79 223.545 325.666 223.785C325.306 224.475 317.406 239.396 308.232 239.396H308.229ZM298.686 226.023C298.417 227.658 297.599 235.499 306.099 238.066C306.804 238.277 307.507 238.377 308.205 238.377C315.98 238.377 323.17 226.19 324.536 223.739L318.273 220.109L298.686 226.021V226.023Z" fill="black"/>
<path d="M362.329 248.278H313.767C312.537 248.278 311.465 247.44 311.167 246.245L301.364 206.718C300.946 205.03 302.222 203.395 303.964 203.395H352.525C353.755 203.395 354.827 204.234 355.125 205.428L364.929 244.956C365.347 246.644 364.07 248.278 362.329 248.278Z" fill="white"/>
<path d="M362.329 248.783H313.767C312.302 248.783 311.03 247.789 310.678 246.366L300.875 206.84C300.637 205.884 300.85 204.89 301.457 204.114C302.065 203.338 302.979 202.893 303.964 202.893H352.525C353.991 202.893 355.263 203.887 355.614 205.31L365.418 244.835C365.656 245.792 365.442 246.786 364.835 247.562C364.228 248.338 363.314 248.783 362.329 248.783ZM303.966 203.902C303.294 203.902 302.669 204.207 302.256 204.736C301.842 205.266 301.695 205.944 301.858 206.598L311.661 246.123C311.901 247.095 312.769 247.773 313.77 247.773H362.331C363.003 247.773 363.628 247.469 364.041 246.939C364.455 246.41 364.602 245.732 364.439 245.078L354.636 205.553C354.396 204.581 353.528 203.902 352.527 203.902H303.966Z" fill="black"/>
<path d="M304.969 223.045L306.395 226.999L318.071 221.439C318.071 221.439 324.492 226.999 308.928 234.123C302.443 237.092 304.967 223.045 304.967 223.045H304.969Z" fill="white"/>
<path d="M307.302 235.043C306.704 235.043 306.177 234.865 305.719 234.512C302.883 232.312 304.302 223.908 304.473 222.956C304.513 222.731 304.7 222.56 304.929 222.542C305.156 222.516 305.369 222.66 305.447 222.874L306.684 226.303L317.855 220.983C318.037 220.899 318.251 220.925 318.404 221.059C318.478 221.123 320.201 222.647 319.843 225.158C319.383 228.374 315.782 231.545 309.141 234.585C308.472 234.892 307.858 235.046 307.302 235.046V235.043ZM305.187 225.138C304.862 228.116 304.764 232.492 306.339 233.713C306.908 234.156 307.687 234.138 308.721 233.665C316.578 230.068 318.562 226.975 318.843 225.013C319.054 223.541 318.342 222.493 317.964 222.053L306.615 227.457C306.486 227.517 306.337 227.522 306.206 227.468C306.074 227.415 305.97 227.306 305.923 227.173L305.189 225.138H305.187Z" fill="black"/>
<path d="M373.653 202.922C373.653 202.922 395.482 215.176 399.986 219.024C404.489 222.871 409.371 225.792 403.024 234.205C396.676 242.618 369.615 208.92 369.615 208.92C369.615 208.92 364.417 209.781 362.602 202.7C362.602 202.7 353.824 203.013 353.506 200.258L365.885 198.042C367.486 197.756 369.123 198.28 370.26 199.444L373.653 202.917V202.922Z" fill="white"/>
<path d="M400.213 236.06C391.201 236.06 371.567 212.138 369.388 209.447C368.207 209.505 363.941 209.269 362.215 203.218C360.047 203.262 353.33 203.171 353.001 200.318C352.97 200.053 353.152 199.808 353.415 199.762L365.794 197.547C367.56 197.231 369.366 197.809 370.62 199.092L373.963 202.515C375.508 203.385 395.898 214.867 400.313 218.637C400.66 218.933 401.009 219.224 401.354 219.513C405.579 223.036 409.574 226.361 403.426 234.51C402.666 235.517 401.609 236.04 400.288 236.058C400.264 236.058 400.237 236.058 400.213 236.058V236.06ZM369.612 208.415C369.766 208.415 369.913 208.484 370.008 208.604C370.222 208.869 391.35 235.048 400.208 235.048C400.23 235.048 400.253 235.048 400.275 235.048C401.282 235.032 402.05 234.656 402.621 233.9C408.188 226.523 404.888 223.772 400.709 220.292C400.359 220 400.008 219.707 399.657 219.409C395.242 215.637 373.625 203.487 373.407 203.362C373.364 203.338 373.327 203.309 373.293 203.273L369.899 199.799C368.878 198.754 367.413 198.285 365.974 198.543L354.202 200.649C355.174 201.883 359.478 202.301 362.582 202.195C362.807 202.188 363.032 202.346 363.089 202.575C364.76 209.094 369.339 208.453 369.532 208.42C369.559 208.415 369.586 208.413 369.612 208.413V208.415Z" fill="black"/>
<path d="M342.851 163.395C342.455 164.077 343.271 165.405 343.28 165.403C343.293 165.398 342.889 161.517 340.725 160.537C339.47 159.967 338.821 160.915 336.953 160.659C334.969 160.385 332.783 158.915 331.964 156.765C330.974 154.167 332.4 151.694 333.301 150.133C334.195 148.58 335.334 146.852 337.308 146.105C339.884 145.131 340.96 146.625 343.907 145.709C346.305 144.964 346.129 143.808 348.262 143.2C350.041 142.696 355.165 142.982 356.313 145.709C357.04 147.437 355.472 148.491 356.253 151.053C356.722 152.59 357.46 152.779 358.001 153.967C359.337 156.914 357.663 162.089 354.471 163.822C350.143 166.175 343.787 161.775 342.849 163.395H342.851Z" fill="black"/>
<path d="M344.706 165.478L343.698 173.742C343.507 175.317 342.373 176.614 340.838 177.014L336.586 178.121L349.69 188.101L364.415 176.929L359.135 175.751C357.618 175.413 356.451 174.196 356.175 172.666L353.98 160.489L344.706 165.478Z" fill="white"/>
<path d="M349.69 188.606C349.581 188.606 349.474 188.57 349.383 188.503L336.279 178.524C336.125 178.406 336.052 178.213 336.09 178.022C336.128 177.83 336.27 177.681 336.459 177.632L340.711 176.525C342.055 176.176 343.029 175.059 343.198 173.682L344.205 165.416C344.225 165.253 344.323 165.109 344.468 165.031L353.742 160.043C353.884 159.965 354.055 159.963 354.202 160.034C354.349 160.105 354.451 160.241 354.48 160.398L356.675 172.575C356.915 173.909 357.925 174.961 359.246 175.257L364.526 176.436C364.717 176.478 364.869 176.629 364.911 176.821C364.953 177.012 364.88 177.212 364.722 177.332L349.997 188.503C349.905 188.572 349.799 188.606 349.692 188.606H349.69ZM337.72 178.348L349.692 187.465L363.241 177.185L359.024 176.242C357.302 175.858 355.99 174.49 355.677 172.755L353.606 161.264L345.175 165.798L344.198 173.803C343.981 175.595 342.711 177.045 340.965 177.501L337.72 178.346V178.348Z" fill="black"/>
<path d="M352.926 162.168C352.926 162.168 356.188 160.938 354.963 158.243C353.737 155.547 351.742 157.538 351.742 157.538C351.742 157.538 349.89 150.897 345.993 153.515C342.099 156.135 338.409 157.086 338.409 157.086C338.409 157.086 339.782 163.772 342.246 168.218C343.731 170.9 345.615 172.768 347.833 171.867C353.906 169.399 352.926 162.168 352.926 162.168Z" fill="white"/>
<path d="M346.685 172.61C344.966 172.61 343.329 171.222 341.801 168.462C339.328 163.999 337.969 157.462 337.913 157.187C337.86 156.922 338.022 156.662 338.283 156.595C338.318 156.586 341.941 155.63 345.711 153.092C346.754 152.392 347.775 152.216 348.744 152.574C350.519 153.228 351.571 155.539 352.003 156.711C352.416 156.466 352.997 156.237 353.626 156.35C354.373 156.486 354.978 157.051 355.423 158.03C355.81 158.884 355.848 159.7 355.534 160.458C355.085 161.548 354.02 162.197 353.459 162.478C353.559 164.054 353.559 170.084 348.022 172.332C347.57 172.515 347.125 172.606 346.685 172.606V172.61ZM339.003 157.44C339.359 159.013 340.656 164.306 342.686 167.973C344.319 170.92 345.984 172.072 347.641 171.4C353.273 169.112 352.461 162.515 352.423 162.237C352.392 162.004 352.525 161.779 352.745 161.697C352.777 161.686 354.162 161.139 354.6 160.073C354.803 159.578 354.772 159.048 354.5 158.454C354.2 157.796 353.846 157.425 353.444 157.351C352.894 157.253 352.274 157.723 352.098 157.896C351.971 158.023 351.787 158.074 351.613 158.027C351.44 157.983 351.304 157.847 351.255 157.674C351.246 157.638 350.266 154.213 348.393 153.524C347.737 153.284 347.045 153.417 346.276 153.935C343.122 156.057 340.133 157.096 339.003 157.442V157.44Z" fill="black"/>
</g>
<defs>
<clipPath id="clip0_2005_2134">
<rect width="407" height="225" fill="white"/>
</clipPath>
</defs>
</svg>
