<?xml version="1.0" encoding="UTF-8"?><svg id="Layer_2" xmlns="http://www.w3.org/2000/svg" xmlns:xlink="http://www.w3.org/1999/xlink" viewBox="0 0 853.5 696.81"><defs><style>.cls-1{fill:none;}.cls-2{clip-path:url(#clippath);}.cls-3{fill:#f4bf9c;}.cls-4{fill:aqua;}.cls-5,.cls-6{fill:#00c5bf;}.cls-7{fill:#00a69e;}.cls-8{fill:#020202;}.cls-9{fill:#0085b8;}.cls-10{fill:#eae9e8;}.cls-11,.cls-12{fill:#fff;}.cls-13,.cls-14{fill:#fc64a5;}.cls-15{fill:#ff007a;}.cls-16{fill:#ff9568;}.cls-17{fill:#ff76b8;}.cls-18{fill:#941f1e;}.cls-19{fill:#b7805c;}.cls-20{fill:#a68686;}.cls-21{fill:#a88686;}.cls-22{fill:#bc898a;}.cls-23{fill:#cc9a9a;}.cls-24{fill:#cb9192;}.cls-25{fill:#dda078;}.cls-26,.cls-27{fill:#da9fa0;}.cls-28{fill:#c6999a;}.cls-29{fill:#a87152;}.cls-30,.cls-31{fill:#172e4a;}.cls-32{fill:#070707;}.cls-33{fill:#3a3a3a;}.cls-34{fill:#282828;}.cls-35{clip-path:url(#clippath-1);}.cls-36{clip-path:url(#clippath-4);}.cls-37{clip-path:url(#clippath-3);}.cls-38{clip-path:url(#clippath-2);}.cls-39{clip-path:url(#clippath-7);}.cls-40{clip-path:url(#clippath-8);}.cls-41{clip-path:url(#clippath-6);}.cls-42{clip-path:url(#clippath-5);}.cls-43{clip-path:url(#clippath-9);}.cls-44{clip-path:url(#clippath-60);}.cls-45{clip-path:url(#clippath-69);}.cls-46{clip-path:url(#clippath-20);}.cls-47{clip-path:url(#clippath-21);}.cls-48{clip-path:url(#clippath-24);}.cls-49{clip-path:url(#clippath-23);}.cls-50{clip-path:url(#clippath-22);}.cls-51{clip-path:url(#clippath-25);}.cls-52{clip-path:url(#clippath-44);}.cls-53{clip-path:url(#clippath-45);}.cls-54{clip-path:url(#clippath-40);}.cls-55{clip-path:url(#clippath-42);}.cls-56{clip-path:url(#clippath-41);}.cls-57{clip-path:url(#clippath-47);}.cls-58{clip-path:url(#clippath-43);}.cls-59{clip-path:url(#clippath-46);}.cls-60{clip-path:url(#clippath-48);}.cls-61{clip-path:url(#clippath-49);}.cls-62{clip-path:url(#clippath-81);}.cls-63{clip-path:url(#clippath-83);}.cls-64{clip-path:url(#clippath-80);}.cls-65{clip-path:url(#clippath-82);}.cls-66{clip-path:url(#clippath-27);}.cls-67{clip-path:url(#clippath-28);}.cls-68{clip-path:url(#clippath-26);}.cls-69{clip-path:url(#clippath-29);}.cls-70{clip-path:url(#clippath-34);}.cls-71{clip-path:url(#clippath-35);}.cls-72{clip-path:url(#clippath-36);}.cls-73{clip-path:url(#clippath-37);}.cls-74{clip-path:url(#clippath-39);}.cls-75{clip-path:url(#clippath-33);}.cls-76{clip-path:url(#clippath-32);}.cls-77{clip-path:url(#clippath-30);}.cls-78{clip-path:url(#clippath-38);}.cls-79{clip-path:url(#clippath-31);}.cls-80{clip-path:url(#clippath-53);}.cls-81{clip-path:url(#clippath-54);}.cls-82{clip-path:url(#clippath-50);}.cls-83{clip-path:url(#clippath-51);}.cls-84{clip-path:url(#clippath-52);}.cls-85{clip-path:url(#clippath-55);}.cls-86{clip-path:url(#clippath-56);}.cls-87{clip-path:url(#clippath-57);}.cls-88{clip-path:url(#clippath-58);}.cls-89{clip-path:url(#clippath-79);}.cls-90{clip-path:url(#clippath-61);}.cls-91{clip-path:url(#clippath-64);}.cls-92{clip-path:url(#clippath-62);}.cls-93{clip-path:url(#clippath-68);}.cls-94{clip-path:url(#clippath-67);}.cls-95{clip-path:url(#clippath-73);}.cls-96{clip-path:url(#clippath-59);}.cls-97{clip-path:url(#clippath-65);}.cls-98{clip-path:url(#clippath-63);}.cls-99{clip-path:url(#clippath-66);}.cls-100{clip-path:url(#clippath-70);}.cls-101{clip-path:url(#clippath-75);}.cls-102{clip-path:url(#clippath-72);}.cls-103{clip-path:url(#clippath-78);}.cls-104{clip-path:url(#clippath-71);}.cls-105{clip-path:url(#clippath-77);}.cls-106{clip-path:url(#clippath-74);}.cls-107{clip-path:url(#clippath-76);}.cls-108{clip-path:url(#clippath-14);}.cls-109{clip-path:url(#clippath-13);}.cls-110{clip-path:url(#clippath-12);}.cls-111{clip-path:url(#clippath-10);}.cls-112{clip-path:url(#clippath-15);}.cls-113{clip-path:url(#clippath-17);}.cls-114{clip-path:url(#clippath-16);}.cls-115{clip-path:url(#clippath-19);}.cls-116{clip-path:url(#clippath-11);}.cls-117{clip-path:url(#clippath-18);}.cls-12{stroke:#fb64a5;stroke-miterlimit:10;stroke-width:1.68px;}.cls-31,.cls-27,.cls-14,.cls-6{fill-rule:evenodd;}.cls-118{isolation:isolate;}</style><clipPath id="clippath"><path class="cls-1" d="m590.17,639.93c18.47,3.74,43.77,1.6,74.62-9.82,30.42-10.89,67.78-34.91,90.84-54.87,24.44-21.14,49.53-53.27,50.92-71.73,1.28-18.25-17.08-26.47-39.28-29.57l-3.1-.43c-20.71-2.67-48.46,3.95-77.71,15.8-61.7,24.44-122.54,80.81-126.81,115.71-2.35,18.89,11.42,30.96,30.53,34.91m167.48-147.52h0c18.68,2.67,28.39,11.53,27.54,25.09s-12.7,30.85-33.09,48.46c-21.56,18.68-49.32,34.91-77.92,45.15-55.83,20.18-98.53,12.6-94.9-15.8,3.52-27.97,51.13-68.85,105.36-89.99,27.65-11.1,53.69-15.58,73.01-12.92"/></clipPath><clipPath id="clippath-1"><polygon class="cls-1" points="-1200.17 3031.9 1326.61 7709.62 1047.37 -91.6 -243.84 324.07 -1200.17 3031.9"/></clipPath><clipPath id="clippath-2"><circle class="cls-1" cx="656.57" cy="459.32" r="104.18"/></clipPath><clipPath id="clippath-3"><rect class="cls-1" x="-1214.16" y="-158.31" width="2541.52" height="2358.02"/></clipPath><clipPath id="clippath-4"><path class="cls-1" d="m567.97,596.38c-2.24,30.42,42.38,36.93,102.16,13.34,61.27-24.44,112.83-70.88,113.47-102.37.43-30.85-48.46-34.48-108.03-9.07-57.86,24.55-105.14,68.1-107.6,98.1"/></clipPath><clipPath id="clippath-5"><polygon class="cls-1" points="-1200.17 3031.9 1326.61 7709.62 1047.37 -91.6 -243.84 324.07 -1200.17 3031.9"/></clipPath><clipPath id="clippath-6"><path class="cls-1" d="m607.68,623.07c16.01,3.1,37.36,1.6,63.09-6.94,25.3-8.22,55.93-26.47,74.83-41.74,19.96-16.23,40.24-40.88,40.67-55.29.43-14.2-10.03-21.14-28.93-23.8h0c-16.65-2.24-39.28,1.07-63.94,9.82-51.88,18.47-110.38,63.09-112.72,90.63-1.6,14.41,10.46,24.02,27.01,27.33m137.17-114.86h.43c15.8,2.24,24.23,9.29,23.59,19.96-.43,10.67-9.82,24.02-26.47,37.57-17.51,14.2-40.46,26.47-64.15,34.48-46.43,15.37-84.44,9.29-81.13-13.34,3.52-25.73,43.34-58.92,86.68-69.71,22.84-5.55,45.15-11.53,61.59-9.07"/></clipPath><clipPath id="clippath-7"><polygon class="cls-1" points="-1200.17 3031.9 1326.61 7709.62 1047.37 -91.6 -243.84 324.07 -1200.17 3031.9"/></clipPath><clipPath id="clippath-8"><path class="cls-1" d="m681.87,616.88c65.97-22.42,130.87-92.23,127.99-126.6-2.46-30.21-27.33-30.85-96.39-16.23-.21,0-10.25,3.52,23.59-7.79l20.18-4.91c39.5-8.86,70.45-5.34,69.71,26.26-.64,38.64-65.76,104.4-131.94,127.03-4.7,1.6-9.07,2.88-13.34,3.74-1.07.43-.85-1.39.21-1.49h0"/></clipPath><clipPath id="clippath-9"><polygon class="cls-1" points="-1200.17 3031.9 1326.61 7709.62 1047.37 -91.6 -243.84 324.07 -1200.17 3031.9"/></clipPath><clipPath id="clippath-10"><path class="cls-1" d="m677.49,630.86c-68,34.91-129.48,19.32-125.96-17.51,3.1-32.45,26.9-55.29,95.75-104.4.21,0,10.67-6.19-24.02,14.2l-20.18,13.45c-38.43,27.11-67.57,57.75-67.78,88.39-.21,38.11,60.85,50.06,128.42,15.16,4.7-2.46,9.29-5.12,13.98-7.79.85-.64.85-2.13-.21-1.49h0"/></clipPath><clipPath id="clippath-11"><polygon class="cls-1" points="-1200.17 3031.9 1326.61 7709.62 1047.37 -91.6 -243.84 324.07 -1200.17 3031.9"/></clipPath><clipPath id="clippath-12"><path class="cls-1" d="m617.29,576.21c-1.81,18.47,22.63,24.02,55.51,12.49,33.3-11.74,61.7-36.61,63.09-55.29,1.28-18.47-24.66-23.38-57.54-11.1-32.24,11.64-59.24,35.65-61.06,53.91"/></clipPath><clipPath id="clippath-13"><polygon class="cls-1" points="-1200.17 3031.9 1326.61 7709.62 1047.37 -91.6 -243.84 324.07 -1200.17 3031.9"/></clipPath><clipPath id="clippath-14"><path class="cls-1" d="m605.54,502.02c-.85,1.81-.43,3.31.85,3.52,1.39.21,3.1-1.07,3.95-2.88.85-1.81.43-3.31-.85-3.52-1.28,0-3.1,1.07-3.95,2.88"/></clipPath><clipPath id="clippath-15"><polygon class="cls-1" points="-1200.17 3031.9 1326.61 7709.62 1047.37 -91.6 -243.84 324.07 -1200.17 3031.9"/></clipPath><clipPath id="clippath-16"><path class="cls-1" d="m609.92,692.77c-.85,2.03-.43,3.74,1.07,3.95,1.28.43,3.31-.85,4.27-2.88.85-2.03.43-3.74-1.07-3.95-1.39-.21-3.42,1.17-4.27,2.88"/></clipPath><clipPath id="clippath-17"><polygon class="cls-1" points="-1200.17 3031.9 1326.61 7709.62 1047.37 -91.6 -243.84 324.07 -1200.17 3031.9"/></clipPath><clipPath id="clippath-18"><path class="cls-1" d="m727.87,615.92c-.85,2.03-.43,3.74,1.28,3.95,1.6.43,3.52-1.07,4.48-2.88.85-2.03.43-3.74-1.28-3.95-1.6-.21-3.52.96-4.48,2.88"/></clipPath><clipPath id="clippath-19"><polygon class="cls-1" points="-1200.17 3031.9 1326.61 7709.62 1047.37 -91.6 -243.84 324.07 -1200.17 3031.9"/></clipPath><clipPath id="clippath-20"><path class="cls-1" d="m825.44,457.08c-.85,1.81-.21,3.52,1.28,3.74s3.52-1.07,4.48-3.1c.85-1.81.21-3.52-1.28-3.74-1.6-.21-3.63,1.28-4.48,3.1"/></clipPath><clipPath id="clippath-21"><polygon class="cls-1" points="-1200.17 3031.9 1326.61 7709.62 1047.37 -91.6 -243.84 324.07 -1200.17 3031.9"/></clipPath><clipPath id="clippath-22"><path class="cls-1" d="m520.57,567.35c-.85,1.81-.43,3.52.85,3.74,1.28.43,3.1-.85,3.95-2.67.85-1.81.43-3.52-.85-3.74-1.28-.53-2.99.85-3.95,2.67"/></clipPath><clipPath id="clippath-23"><polygon class="cls-1" points="-1196.01 2941.06 1330.56 7618.78 1051.31 -182.44 -239.99 233.13 -1196.01 2941.06"/></clipPath><clipPath id="clippath-24"><path class="cls-1" d="m567.97,544.61l-.64.85h-.21l.21-1.07c.21-.64,0-1.28-.43-2.03l-.43-.43v-.21h0l.85-.21c.85-.21,1.6-.64,2.24-1.28l.64-.85h.21l-.21,1.07c-.21.64,0,1.28.43,2.03l.43.43v.21h0l-.85.21c-.96.21-1.81.64-2.24,1.28"/></clipPath><clipPath id="clippath-25"><polygon class="cls-1" points="-1200.17 3031.9 1326.61 7709.62 1047.37 -91.6 -243.84 324.07 -1200.17 3031.9"/></clipPath><clipPath id="clippath-26"><path class="cls-1" d="m587.08,510.67l-1.28,1.28h-.21l.21-1.6c.21-1.07-.21-2.24-.85-2.88l-1.07-.64v-.21s0-.21.21-.21l1.28-.43c1.28-.43,2.46-1.07,3.31-2.24l1.28-1.28h.21v.21h0l-.21,1.28c-.21,1.07.21,2.24.85,2.88l1.07.64v.21s0,.21-.21.21l-1.6.43c-.75.32-2.13.96-2.99,2.35"/></clipPath><clipPath id="clippath-27"><polygon class="cls-1" points="-1200.17 3031.9 1326.61 7709.62 1047.37 -91.6 -243.84 324.07 -1200.17 3031.9"/></clipPath><clipPath id="clippath-28"><path class="cls-1" d="m741.22,454.84l-1.28,1.28h0v-.21h0l.21-1.6c.21-1.07-.21-2.24-1.28-2.88l-1.07-.64v-.21s0-.21.21-.21l1.6-.43c1.28-.43,2.67-1.28,3.74-2.24l1.28-1.28h.21v.21h0l-.21,1.6c-.21,1.07.43,2.24,1.28,2.88l1.07.64v.21s0,.21-.21.21l-1.6.43c-1.71.32-3.1,1.17-3.95,2.24"/></clipPath><clipPath id="clippath-29"><polygon class="cls-1" points="-1200.17 3031.9 1326.61 7709.62 1047.37 -91.6 -243.84 324.07 -1200.17 3031.9"/></clipPath><clipPath id="clippath-30"><path class="cls-1" d="m632.12,681.25l-1.28,1.28h-.21s-.21,0,0-.21h0l.21-1.81c.21-1.28-.21-2.46-1.07-3.31l-1.07-.85v-.21s0-.21.21-.21l1.6-.43c1.17-.53,2.46-1.17,3.63-2.24l1.28-1.28h.21s.21,0,0,.21h0l-.21,1.6c-.21,1.28.21,2.46,1.07,3.31l1.07.85v.21s0,.21-.21.21l-1.6.43c-1.39.43-2.78,1.39-3.63,2.46"/></clipPath><clipPath id="clippath-31"><polygon class="cls-1" points="-1200.17 3031.9 1326.61 7709.62 1047.37 -91.6 -243.84 324.07 -1200.17 3031.9"/></clipPath><clipPath id="clippath-32"><path class="cls-1" d="m786.05,561.69l1.07-.21c.85-.21,1.81-.85,2.46-1.6l.85-1.07h.21l-.21,1.07c-.21.64.21,1.6.64,2.24l.64.43v.21h-.21l-1.07.21c-.85.21-1.81.85-2.46,1.6l-.64,1.07h-.21l.21-1.07c.21-.64-.21-1.6-.64-2.24l-.64-.64q0,.21,0,0,0,.21,0,0"/></clipPath><clipPath id="clippath-33"><polygon class="cls-1" points="-1200.17 3031.9 1326.61 7709.62 1047.37 -91.6 -243.84 324.07 -1200.17 3031.9"/></clipPath><clipPath id="clippath-34"><path class="cls-1" d="m370.1,90s-5.1-4.7-15.4,0c-10.2,4.7-11.7,5.6-29,10.1-11.5,3-19.5-3.3-26.6-1.8-2.3.5,8.7,7.5,8.7,7.5-.5.1-12.3,3.7-12.3,4.3v4.5c0,.4.3.9.7,1l4.4,2.2c.8.4.9,1.6.1,2.1l-9.9,5.6c-1.2.7-.5,2.4.8,2.2l8.8-1.9c1.1-.2,1.9,1.1,1.1,2l-3.7,3.8c-.7.7-.2,1.9.8,2l4.4.2h.1c.9.1,14.4-3-4.5-.2l-13.9.7c-1.2.2,5.4,4,6.6,4.4l3.9,8.1c1,.3,1.1,1.6.2,2.1h0c-1.1.6-.6,2.2.6,2.2h11.1c.8,0,1.4.8,1.1,1.6l-1.5,4.2c-.2.5,0,1.1.5,1.4l22.5,6.6-14.7-1.1,18.5,17.6c.1.1.3.2.5.3,14.3,3.9,31.4,3.5,36.6,3.2.8,0,1.4.7,1.2,1.4l-.9,3.6c-.3,1,.9,1.8,1.8,1.3l5.4-3.3c1-.6,2.2.4,1.7,1.5l-1,2.1c-.5,1.2.9,2.2,1.9,1.4l7.6-6.8c.8-.7,2-.1,2,.9v3.2c0,1,1.1,1.5,1.9.9l11.5-8.7c.2-.1.3-.3.4-.6h0c.6-1.7,3.2-1,2.8.7-.4,1.9-1,3.7-1.9,5.1-3.7,5.2,3.5-3.1,8.7-18.9,1.7-5.3-1.8-8.9-3.3-9.6-.5-.2.1-1.4.7-1.4,3.9-.4,4.7,9.1,4.8,7.3.2-9-3.7-11.6-3.7-11.6-6.6-12.9,4.8-37-5.2-44.7s-15.8-14.4-20.5-14.9c-4.7-.9-16.4-3.8-16.4-3.8"/></clipPath><clipPath id="clippath-35"><rect class="cls-1" x="-1046" y="-197.2" width="2163.9" height="3789.4"/></clipPath><clipPath id="clippath-36"><path class="cls-1" d="m357.8,175.84s2.22,3.11,3.66,14.64,0,9.73,0,9.73l36.94-9.02c.48-.1.87-.9.39-1.1-6.46-2.71-17.84-23.56-16.11-31.98,2.31-9.73-24.88,17.75-24.88,17.75"/></clipPath><clipPath id="clippath-37"><rect class="cls-1" x="-1140.59" y="-214.79" width="2304.35" height="3929.06"/></clipPath><clipPath id="clippath-38"><path class="cls-1" d="m365.1,166.3l23.6-5.1c-3.4,6.2-18,32.8-27.4,25.7,0,0-1.4-11.8-1.2-12.1l3.1,1.1"/></clipPath><clipPath id="clippath-39"><rect class="cls-1" x="-278.5" y="-249.2" width="1895.4" height="4359.7"/></clipPath><clipPath id="clippath-40"><path class="cls-1" d="m378.4,148.9c-1.8-1.6-5.3-1.4-7.1.5-.7.7-.9,1.6-1.1,2.5-.2,1.1-1.1,4.1.7,6.2,1.6,1.6,4.1,1.8,6,.9,3.1-1.8,4-7.8,1.5-10.1"/></clipPath><clipPath id="clippath-41"><rect class="cls-1" x="-1027.7" y="-166.4" width="2139.1" height="3508.3"/></clipPath><clipPath id="clippath-42"><path class="cls-1" d="m361.6,105.7s-17.5,13.3-22.5,15c-5.1,1.8,23.6.4,28-4.7,4.7-5.2-5.5-10.3-5.5-10.3"/></clipPath><clipPath id="clippath-43"><rect class="cls-1" x="-1816.12" y="525.72" width="3444.55" height="1955" transform="translate(-1581.17 1265.86) rotate(-84.5)"/></clipPath><clipPath id="clippath-44"><path class="cls-1" d="m374.9,108.8s-16,14.8-20.5,17.2c-4.5,2.4,20.4-3.5,24.6-8.8,4.4-5.5-4.1-8.4-4.1-8.4"/></clipPath><clipPath id="clippath-45"><rect class="cls-1" x="-353.48" y="-159.41" width="1497.84" height="3443.83" transform="translate(-282.7 100.34) rotate(-10.68)"/></clipPath><clipPath id="clippath-46"><path class="cls-1" d="m388.1,111.5s-16,14.8-20.5,17.2c-4.5,2.4,20.4-3.5,24.6-8.8,4.4-5.5-4.1-8.4-4.1-8.4"/></clipPath><clipPath id="clippath-47"><rect class="cls-1" x="-340.27" y="-156.74" width="1497.84" height="3443.83" transform="translate(-282.97 102.84) rotate(-10.68)"/></clipPath><clipPath id="clippath-48"><path class="cls-1" d="m396.3,148.7s-17.2,7.4-21.4,8.3c-4.2.9,16.2,1.2,21.3-1.7,5.1-3.1.1-6.6.1-6.6"/></clipPath><clipPath id="clippath-49"><rect class="cls-1" x="-1883.93" y="619.34" width="2974.99" height="991.8" transform="translate(-1134.71 190.11) rotate(-58.16)"/></clipPath><clipPath id="clippath-50"><path class="cls-1" d="m392.9,152.8s-15,11.2-18.9,13,16.1-2.6,20.3-6.6c4.3-4.2-1.4-6.4-1.4-6.4"/></clipPath><clipPath id="clippath-51"><rect class="cls-1" x="-1366.21" y="876.24" width="2975.26" height="991.89" transform="translate(-1256.11 1375.47) rotate(-85.08)"/></clipPath><clipPath id="clippath-52"><path class="cls-1" d="m348.2,520.6s13.1,8.5,13.6,15.6c.5,7.2-2.8,18.2,0,21.5s8.5,7.2,7.9,11.5c-.5,4.4,0,16.2-5.1,24.9-2.1,3.6-14.9,6.9-18.2,5.4-4.6-2.3-4.4-2.6-4.6-2.8-1.3-3.3.3-3.6,3.1-12.6,2.8-9,1.5-2.8,2.8-11s-1.5-3.3-9.7-3.6c-7.2-.3-23.6,1-19-11,4.6-12,29.2-37.9,29.2-37.9"/></clipPath><clipPath id="clippath-53"><rect class="cls-1" x="-1199" y="-213.8" width="2393.6" height="3925.6"/></clipPath><clipPath id="clippath-54"><path class="cls-1" d="m514.1,10.5s3.2-1.4,3.6-.7c.2.7.7,2.3.7,2.3l-5.9,6.1v-7.5l1.6-.2Z"/></clipPath><clipPath id="clippath-55"><rect class="cls-1" x="-1008.7" y="-181" width="2125.2" height="3485.4"/></clipPath><clipPath id="clippath-56"><rect class="cls-1" x="470.8" width="41.7" height="63.3"/></clipPath><clipPath id="clippath-57"><rect class="cls-1" x="469" y="-1.8" width="43.5" height="68.8"/></clipPath><clipPath id="clippath-58"><path class="cls-1" d="m484.7,63.5s-4.1-6.8-4.1-8.4c-.2-1.8-3.2-10.9-3.2-12.3-.2-1.4-2-3.9-2-3.9,0,0-3.2-1.6-3.6-3.9-.5-2.3,0-4.3,0-4.3h2.5s3.2,1.1,4.1,3c.9,1.8,1.4,4.1,3.2,5.7,1.6,1.6,5.2.2,5.2.2,0,0,.5-2.3,2.7-3.6,2.3-1.4,6.6-8,6.6-8l7.7-8.4,2.7-2.7s-.2-8.7.7-10c.9-1.4,2-5.9,2.7-6.1s2.3-.7,2.3-.7c0,0,.9,1.4.7,2.3-.2.9-1.1,18-1.1,18l.7,7.5v5.5s-1.4,3.9-2,5.9c-.7,2-4.8,11.6-4.8,11.6l-3.6,11.2c-.5-.6-13.3,3-17.4,1.4"/></clipPath><clipPath id="clippath-59"><rect class="cls-1" x="470.8" width="41.7" height="63.3"/></clipPath><clipPath id="clippath-60"><path class="cls-1" d="m230.3,246.7s5.1.8,9.2.8,8.5-1.3,9-2.8c.5-1.3.8-3.8,1.5-5.4.8-1.3,2.8-3.8,3.6-5.4.8-1.8,0-8.5.8-12.1.8-3.8,2.6-7.2,2.1-9.5s-.8-4.4-2.6-3.6c-1.5.8-4.4,1.8-5.4,5.1-.8,3.3-.3,3.3-1,4.1-.8,1,.3,1.3-1.8,1s-6.7-4.4-6.7-4.4c0,0-3.8-2.8-4.1-3.8s-1.5-3.6-3.1-4.4c-1.5-.8-1.5-2.8-4.4-4.9-3.1-1.8-4.4,0-4.4,0v2.8l2.1,3.8,3.1,3.8.8,3.3,1.5,2.3-2.1-.3-2.3-2.1-1.3-1.8-2.1-.8-3.3,2.1,1.3,3.1,2.1,2.3,1.8,1.3,1.5,2.6h-2.6l-4.1-1.5-2.6.8v3.9l2.3,1.8,2.6,1,1.5,1.5v2.3l-4.4.5-1.8-.3v3.3l.5,1h2.6l3.1,1.5,7.1,7.1Z"/></clipPath><clipPath id="clippath-61"><rect class="cls-1" x="-1209" y="-207.6" width="2393.6" height="3925.6"/></clipPath><clipPath id="clippath-62"><path class="cls-1" d="m232,250.8s5.4,11.3,5.1,14.4c-.3,3.3-.3,21.5,1.8,26.2,2.1,4.4,6.9,15.1,10.8,16.9,3.8,1.8,18.7-2.8,21-3.8,2.6-1,50-30.5,50-30.5l-3.9-50.6c3.3-.3-30.9,39.1-44.5,45.7-8.5,4.1-7.2,6.7-7.7,6.4-.8-.3-11.3-30.5-11.3-30.5,0,0-1.3,7.1-21.3,5.8"/></clipPath><clipPath id="clippath-63"><rect class="cls-1" x="-1204.1" y="-203.5" width="2393.6" height="3925.6"/></clipPath><clipPath id="clippath-64"><path class="cls-1" d="m359.2,189.7l2.6-2,4.2,7.5,3.6-8.7,13.8-5.6,4.74-4.28,5.99,9.76,4.97,2.22,6.1-.2,6.7-.5h2.6l4.9-.5,8.7-4.6,11-2.8,4.9-1.3s17.2-14.1,19.5-15.9c2.6-1.5,10.8-6.7,11.3-7.7s2.8-15.4,2.8-15.4l3.8-29.2,2.4-31v-15c-1.3,0,19-.7,21.3-2.5l-.5,3.4-.8,3.6s-.3,12.6,0,15.9,5.1,32.3,5.4,36.7c.3,4.4,1.3,33.1,1.3,36.4,0,3.6-2.6,6.4-7.4,12.1-5.1,5.9-22.6,25.4-27.2,29.5s-17.9,14.6-19,15.6c-1,.8-14.9,9.2-15.6,12.1-.8,2.8-2.8,19.7-4.1,26.4-1.3,6.9-18.2,41.1-20.5,44.4-2.6,3.6-7.2,15.7-10,21.1-4.6,8.5-13.3,17.7-12,24.1,1,6.4,4.6,29.4,4.6,33,.3,3.7,3.3,25,.5,43.1-.8,5.6-6.9,23.6-10.5,30.8s-32.9,70.8-32.9,70.8c0,0-8.7,28.7-10.3,31-1.5,2.3-7.4,10.3-12.6,13.1-5.1,3.1-7.9,4.1-13.8,3.8s-11-5.1-14.4-10.8c-2.8-4.9-4.1-8.7-3.6-14.4.3-4.1.3-8.7,1.5-21,.5-4.9,1.8-16.2,5.1-27.4,3.3-11.3,7.7-23.6,9.2-27.7,1.3-4.1,8.5-21.5,10-25.1,1.3-3.6.3-10.8.3-10.8l-7.2-3.3-9,.5-6.4,5.1s-24.1,18.7-30.5,22.6c-6.4,3.6-26.4,19-35.4,24.1-8.7,5.4-17.7,8.7-19.7,10.5-2.1,2.1-9.7,6.4-12.1,7.4-2.1.8-14.4,7.7-19.5,10.8-5.1,3.1-6.2,5.9-11,10.8-4.9,4.6-7.9,7.2-11.8,11.8-3.8,4.6-12.6,12.6-16.4,15.4-3.8,2.6-28.5,10-33.8,12.8-5.4,2.6-43.6,31.3-47.4,33.1-3.6,2.1-16.5,14.2-16.5,14.2,0,0-9.7,7.2-13.8,3.6-4.1-3.6-7.7-14.4-7.7-14.4,0,0,27-20.1,33.1-26.2,6.2-6.2,19.7-19,29.2-28.2,9.2-9.2,33.1-35.9,37.7-41.5,4.9-5.4,21.8-16.9,24.9-18.2,3.1-1.3,19.2-16.4,24.4-21.5,8.2-8.2,13.1-11.8,19.7-20,9.5-11.5,28.5-27.4,32.6-31.3,4.6-4.4,50.74-32.95,58.74-43.75,9.2-12.8,20.9-27.27,26.6-38.57,4.6-9.5,15.16-29.48,5.86-44.08-3.8-6.2-10.9-23.3-9.7-23.3v-18.5c0-2.1,3.1-15.9,6.2-22.6,3.6-7.4,19-9.2,28.2-11,9.2-2.1,13.3-5.6,13.3-5.6l-1.2-12.7Z"/></clipPath><clipPath id="clippath-65"><rect class="cls-1" x="-1199" y="-213.8" width="2393.6" height="3925.6"/></clipPath><clipPath id="clippath-66"><path class="cls-1" d="m317.69,258.85l-19.17,13.58-14.93,10.21-16.21,8.43s-3.75,1.35-11.24,4.76c-3.74,1.85-5.91-3.52-7.7-11.19-2.01-8.97-3.14-29.16-3.14-29.16l-6.16,1.39s1.79,15.58,2.19,21.27c.39,5.39,3.52,18.95,5.13,21.73,3.31,4.85,4.36,5.04,9.17,4.77,4.81-.37,17.05-7.94,20.79-10,3.74-2.15,25.03-13.66,25.03-13.66l16.18-10.73c.21-.1.05-11.4.05-11.4Z"/></clipPath><clipPath id="clippath-67"><rect class="cls-1" x="-1249.25" y="-200.29" width="2505.15" height="3925.6" transform="translate(-25.23 .23) rotate(-.82)"/></clipPath><clipPath id="clippath-68"><path class="cls-1" d="m58.1,595s44.5-33.7,58.8-42.2c2.8-1.8,20.3-10.3,22.1-11,0,0,.3,0,.3-.3l19.5-14.1,10.5-10.5,22.6-18.2,50.3-30.3,42.6-29.2,12.6-8.5c1.5-1,3.3-1.8,5.4-2.3l10-2.8c2.6-.8,6.4-.3,9,.8l7.2,3.1,1.8-4.4s-6.9-8.2-12.3-8.2c-11.5,0-15.4,2.8-18.5,3.8s-18.5,11-18.5,11c0,0-24.9,16.9-30,20.5-6.2,4.1-14.6,11-25.4,16.9-7.7,4.1-34.6,21-34.6,21,0,0-10,6.9-13.6,10.5s-15.9,13.3-20.5,17.2c-4.6,3.8-17.2,13.1-20.8,15.4-3.6,2.6-37.9,23.3-37.9,23.3,0,0-17.4,13.6-27.7,21-6.8,5.6-17.1,14-19.1,14.5"/></clipPath><clipPath id="clippath-69"><rect class="cls-1" x="-1201" y="-211.8" width="2393.6" height="3925.6"/></clipPath><clipPath id="clippath-70"><path class="cls-1" d="m422.1,224.9s-3.6,9.5-5.4,17.2c-3.6,16.4-6.4,21.3-14.9,39.2-5.9,12.6-9.2,16.4-12.3,23.8-4.1,10.5-9.5,15.6-11.8,37.2-.5,5.4,0,13.1,3.6,37.7,2.3,15.4-4.6,53.6-8.5,64.4-3.8,10.8-41.5,75.6-41.8,83.3-.5,33.6-3.3,40.5,1,37.4l7.2-5.4c1-1,3.3-6.4,2.3-7.4-1.8-2.6-3.3-10.5,3.1-30.3,5.4-16.2,14.6-27.4,23.3-42.6,6.4-10.8,17.9-34.6,21.8-50.3,2.8-11,3.3-36.9,0-64.4-3.3-27.2-2.1-32.1,7.7-48.7,10-16.4,13.8-31.3,21.3-44.1,6.4-11,11.3-29.7,13.3-48.5,2.6-18.5-9.9,1.5-9.9,1.5"/></clipPath><clipPath id="clippath-71"><rect class="cls-1" x="-1201" y="-211.8" width="2393.6" height="3925.6"/></clipPath><clipPath id="clippath-72"><path class="cls-1" d="m422.1,227.5s6.9-18.5,15.4-23.3c8.5-4.9,52.6-40.5,57.4-46.7,5.1-6.4-1.8-86.2-1.8-86.2h5.1s9.2,82.1,6.4,87.9c-3.1,5.9-11.8,13.3-28.7,29.7-16.9,16.4-41.8,26.7-43.3,37.4"/></clipPath><clipPath id="clippath-73"><rect class="cls-1" x="-1201" y="-211.8" width="2393.6" height="3925.6"/></clipPath><clipPath id="clippath-74"><path class="cls-1" d="m358.2,205.7s-3.1,14.4-5.9,21.5c-3.8,10-8.5,13.6-4.4,53.1,2.3,23.8,1,39.2-6.4,58.2-7.4,19-13.8,22.6-13.8,22.6l10,4.1s11.5-28.5,14.4-35.1c1.3-2.8,7.4-34.9,3.8-59-3.6-24.4,2.3-40.5,8.2-53.3,5.6-12.6-5.9-12.1-5.9-12.1"/></clipPath><clipPath id="clippath-75"><rect class="cls-1" x="-1201" y="-211.8" width="2393.6" height="3925.6"/></clipPath><clipPath id="clippath-76"><rect class="cls-1" y="585.9" width="51" height="49"/></clipPath><clipPath id="clippath-77"><rect class="cls-1" x="-1.8" y="585.9" width="56.9" height="51"/></clipPath><clipPath id="clippath-78"><path class="cls-1" d="m10.5,636.7c-1.8-1.3-13.3-8.5-7.9-16.7,5.1-8.5,1-11,3.3-16.7,2.3-5.6,10-12.6,10-12.6,0,0,5.1-3.6,11-3.3,5.6.5,15.6,2.8,17.4,5.1,1.8,2.3,11.3,8.5,7.4,14.6-3.8,6.2,2.3,9-12.3,14.9-14.8,6.2-28.9,14.7-28.9,14.7"/></clipPath><clipPath id="clippath-79"><rect class="cls-1" y="585.9" width="51" height="49"/></clipPath><clipPath id="clippath-80"><path class="cls-1" d="m11.8,610.3c-.3-2.6-1.8-4.4,0-7.7s7.7-8.7,9.2-8.7,3.3-1.3,8.7,0,13.3,3.8,14.4,5.9c1,2.1,2.6,6.7,2.1,9.2-.5,2.6-2.6,8.2-5.1,8.7-2.6.8-4.4,2.1-7.7,2.6s-10-.8-14.1-3.1c-3.9-2.1-7.5-6.9-7.5-6.9"/></clipPath><clipPath id="clippath-81"><rect class="cls-1" x="-1205.9" y="-206.6" width="2393.6" height="3925.6"/></clipPath><clipPath id="clippath-82"><path class="cls-1" d="m9.5,615.9s-3.3,3.3-3.6,4.6-.8,4.1,0,5.1c.8,1.3,3.6,4.1,3.6,4.1,0,0,4.4.3,6.9-1.3,2.6-1.5,5.6-3.8,5.6-3.8l-12.5-8.7Z"/></clipPath><clipPath id="clippath-83"><rect class="cls-1" x="-1205.9" y="-206.6" width="2393.6" height="3925.6"/></clipPath></defs><g id="Layer_2-2"><g class="cls-2"><g class="cls-35"><polygon class="cls-32" points="891.52 464.34 617.61 431.46 516.3 638.44 785.52 698.22 891.52 464.34"/></g></g><g class="cls-38"><g class="cls-37"><rect class="cls-16" x="550.57" y="353.32" width="211.68" height="211.68"/></g></g><path class="cls-10" d="m622.84,465.94l17.51,2.03c1.07-.43-1.07.21,0,0l3.74,5.98c3.1,2.67,9.07.64,12.92.21,1.81-.21,3.1-1.28,4.27-2.88l2.67-5.34c1.28-.21-1.28,0,0,0l23.8-2.67,12.7-9.29,32.02-27.97,27.75-72.16h10.46l-21.14,75.04c-.43,1.07-12.92,25.3-13.77,26.05l-27.75,30.64c-2.03,2.24-6.4,15.16-6.19,18.04l5.34,46.43s-24.23,29.36-40.03,30-32.24-8.22-30.42-12.7c.64-2.03,2.03-10.03-5.34-26.05-3.31-7.37-11.96-18.04-14.62-27.97-1.28-24.66-6.94-29.14-6.94-29.14,0,0-5.12-2.24-26.9-21.99-6.62-6.19-11.96-21.35-12.49-26.9-.43-5.55-5.98-27.33-6.4-40.67s-3.52-51.99-3.52-51.99h9.29s8.22,38.64,8.01,40.03c-.53,1.28,15.48,58.39,14.41,55.94-.43-2.24,30.64,27.33,30.64,27.33h0Z"/><path class="cls-19" d="m608.85,428.47s1.28,2.24-4.91,4.7c-6.19,2.46-13.34-.43-12.7,6.62s3.31,23.8,3.31,23.8c0,0-4.48-3.1,1.28-8.01,5.55-4.91,20.18-2.46,26.26,2.24"/><g class="cls-36"><g class="cls-42"><polygon points="847 469.78 604.58 440.21 511.93 629.9 750.61 681.46 847 469.78"/></g></g><g class="cls-41"><g class="cls-39"><polygon class="cls-34" points="838.36 489.74 614.19 460.17 533.49 625.74 754.99 672.6 838.36 489.74"/></g></g><g class="cls-40"><g class="cls-43"><polygon points="892.69 452.7 707.7 431.57 623.05 609.51 805.69 645.49 892.69 452.7"/></g></g><g class="cls-111"><g class="cls-116"><polygon points="753.49 505.11 563.27 478 468.37 670.78 655.5 715.72 753.49 505.11"/></g></g><g class="cls-110"><g class="cls-109"><polygon class="cls-33" points="771.43 508.85 636.61 489.53 583.77 599.26 717.41 625.52 771.43 508.85"/></g></g><g class="cls-108"><g class="cls-112"><polygon class="cls-8" points="616.32 497.54 605.01 495.93 599.46 507.04 610.88 508.85 616.32 497.54"/></g></g><g class="cls-114"><g class="cls-113"><polygon points="621.45 688.61 609.71 685.94 603.94 697.9 615.9 700.78 621.45 688.61"/></g></g><g class="cls-117"><g class="cls-115"><polygon class="cls-33" points="740.15 611.33 727.23 609.09 721.47 621.47 734.39 623.92 740.15 611.33"/></g></g><g class="cls-46"><g class="cls-47"><polygon class="cls-8" points="837.82 452.17 824.59 450.67 819.04 462.63 832.27 464.23 837.82 452.17"/></g></g><g class="cls-50"><g class="cls-49"><polygon class="cls-8" points="531.25 563.08 520.36 560.62 514.81 572.36 525.7 574.82 531.25 563.08"/></g></g><g class="cls-48"><g class="cls-51"><polygon class="cls-33" points="575.97 538.21 566.15 536.6 561.24 546.64 571.06 548.45 575.97 538.21"/></g></g><g class="cls-68"><g class="cls-66"><polygon points="598.18 501.27 584.62 499.35 578 513.12 591.45 515.26 598.18 501.27"/></g></g><g class="cls-67"><g class="cls-69"><polygon points="753.17 445.34 737.91 443.52 731.18 457.83 746.34 459.75 753.17 445.34"/></g></g><g class="cls-77"><g class="cls-79"><polygon points="644.19 671.75 629.45 668.33 622.2 683.49 637.25 686.8 644.19 671.75"/></g></g><g class="cls-76"><g class="cls-75"><polygon class="cls-33" points="797.47 557.74 785.84 555.93 780.82 567.03 792.35 569.06 797.47 557.74"/></g></g><path class="cls-29" d="m667.46,385.13s3.31-8.01-10.67-9.07c-14.2-1.07-33.95,4.48-33.95,4.48,0,0,.43,3.74-5.55,11.1-6.19,7.37-19.32,6.94-18.89,14.2s7.58,20.18,7.58,20.18c0,0-6.4,5.55-5.55,10.67.85,5.55,7.79,10.67,7.79,10.67,0,0,1.07,12.49,5.55,16.01,14.2,10.67,3.1,34.91,13.56,39.07,5.12,2.24,49.32-33.95,49.32-33.95l-9.18-83.37h0Z"/><path class="cls-3" d="m634.79,453.98s10.25,4.48,8.43,26.26l24.87,4.91,8.65-47.08-41.95,15.91h0"/><path class="cls-25" d="m630.41,451.53s10.89,6.4,18.25,7.37c5.55.43,10.89.21,16.23-1.6l7.58-21.35-42.06,15.58"/><path class="cls-29" d="m695.96,517.28s2.67-28.18-1.07-27.97c-3.74.43-12.49-3.52-16.65-5.55-4.48-2.03-9.61-5.12-10.25-8.43-.64-3.31-3.1-5.12-3.95-16.87-.85-11.74,4.91-20.71,4.91-20.71l1.6-11.1s-2.88-12.49-.43-13.34-12.92-13.77-12.92-13.77c0,0,5.76-16.87,11.74-15.16,6.19,2.03,13.34,14.94,17.29,19.75,8.22,9.82,1.07,15.16,2.46,20.39s4.7,5.34,7.37,15.37c2.46,10.03-4.91,10.67-2.67,15.16,2.24,4.27,1.07,2.46,5.76,9.82s-2.67,35.76-4.7,24.66c-1.28-7.15-5.34,4.48-5.34,8.86.53,3.74,6.83,18.89,6.83,18.89h0Z"/><path class="cls-3" d="m627.32,404.24c-2.03,3.1-2.46,6.4-3.52,13.34-1.07,6.4-1.28,12.92-1.28,19.32.21,3.52.43,6.4,2.03,10.03.64,1.6,1.6,3.52,3.31,5.34,3.95,3.74,10.03,3.52,14.41,3.31,4.91-.43,9.82-1.81,14.2-3.95,5.12-2.67,9.61-6.19,13.13-10.67,1.6.64,3.31.64,4.91.43,4.7-1.07,6.19-5.55,6.4-6.19.64-2.03,1.07-5.55-.43-6.62-1.6-1.07-3.74.64-6.4-.85-.43-.43-1.07-.64-1.28-1.07-1.6-2.03-1.28-4.7-.85-7.58.21-1.07.43-2.03.43-2.88,1.07-5.34-7.15-14.41-16.87-18.68-3.95-1.81-9.61-3.95-16.01-2.24-7.58,1.6-11.1,7.26-12.17,8.97h0Z"/><path class="cls-11" d="m625.72,465.51l17.51,2.03c1.07-.43-1.07.21,0,0l3.74,5.76c3.1,2.67,9.07.64,12.7.21,1.81-.21,3.1-1.28,3.95-2.67l2.67-5.12c1.28-.21-1.28,0,0,0l23.59-2.67,12.7-9.07,31.81-27.11,27.75-70.45h10.46l-21.14,73.12c-.43,1.07-12.92,24.44-13.56,25.3l-27.33,29.78c-2.03,2.24-6.19,14.62-6.19,17.51l5.34,45.15s-24.02,28.71-39.5,29.14c-15.58.43-32.02-8.01-30.21-12.49.64-2.03,2.03-9.82-5.34-25.3-3.42-7.37-12.06-17.61-14.73-27.11-1.28-24.02-6.94-28.18-6.94-28.18,0,0-5.12-2.03-26.69-21.35-6.62-5.98-11.96-20.92-12.49-26.26s-5.98-26.69-6.4-39.5c-.43-13.13-3.52-50.6-3.52-50.6h9.07s8.22,37.57,8.01,39.07c-.43,1.28,15.37,56.9,14.2,54.44-.11-2.46,30.53,26.37,30.53,26.37h0Z"/><path class="cls-3" d="m562.42,346.28s-10.25-9.82-9.61-15.8c.64-5.98-1.28-13.34-1.28-13.34,0,0-.64-4.91,2.03-1.81,1.07,1.28,2.24,9.82,2.88,11.53l.43-.21c-.43-2.88-2.67-16.65-.43-16.65s3.74,12.92,3.74,13.77l1.28,1.6c1.81-2.24-1.28-19.32,1.07-19.11,1.28.21,2.24,13.13,3.1,16.87,1.07,3.95,2.46-16.23,4.48-16.23s.64,17.29,1.28,20.18c.21,1.07.43,2.24.43,3.31,0,.85.64,1.6,1.6,1.6h.43c3.31-.85,7.58-4.27,10.89-3.52,2.24.43-6.4,6.4-9.07,8.65-2.67,2.03-3.1,9.29-3.1,9.29"/><path class="cls-3" d="m773.88,358.66s10.25-9.82,9.82-15.8c-.64-5.98,1.28-13.34,1.28-13.34,0,0,.64-4.91-2.03-1.81-1.07,1.28-2.24,9.82-2.88,11.53l-.43-.21c.43-2.88,2.67-16.65.43-16.65s-3.74,12.92-3.74,13.77l-1.28,1.6c-1.81-2.24,1.28-19.32-1.07-19.11-1.28.21-2.24,13.13-3.1,16.87-1.07,3.95-2.46-16.23-4.48-16.23s-.64,17.29-1.28,20.18c-.21,1.07-.43,2.24-.43,3.31,0,.85-.64,1.6-1.6,1.6h-.43c-3.31-.85-7.79-4.27-10.89-3.52-2.24.43,6.4,6.4,9.29,8.65s3.1,9.29,3.1,9.29"/><path class="cls-29" d="m653.47,392.39s-19.32,9.07-17.51,8.43c8.86-3.52,10.25-3.52,23.59-3.1,13.02.21-6.08-5.34-6.08-5.34h0Z"/><path class="cls-29" d="m665.75,447.79s.21,5.55-3.95,14.2c-4.27,8.86-3.74,9.82-3.74,9.82,0,0,14.2-20.18,13.98-25.3-.32-5.23-6.3,1.28-6.3,1.28h0Z"/><path class="cls-29" d="m627,390.9s8.01-3.74-1.28-8.65c-9.29-4.7-22.2.85-22.2.85,0,0,11.1-2.88,11.96-.21s-8.01,6.62-4.27,11.96c3.74,5.55,5.34,5.12,5.34,5.12l10.46-9.07h0Z"/><path class="cls-29" d="m612.8,402.42c-.43.85,3.52,2.03,3.1,3.52-.21.85-2.03,2.24-7.15,3.31-13.34,3.52-20.92-2.24-16.65,7.37s8.65,7.15,8.65,7.15c0,0-7.58-3.31-3.74-5.55,3.74-2.24,13.34,6.4,14.94,6.4,1.6.21.85-22.2.85-22.2h0Z"/><path class="cls-17" d="m632.12,575.78l.64-.43c.64-.43,2.03-.43,2.46.43l.43.43c.43.64.43,2.03-.43,2.46l-.64.43c-.64.43-2.03.43-2.46-.43l-.43-.53c-.43-.85-.21-1.92.43-2.35Z"/><path class="cls-17" d="m645.68,580.37l.64-.43c.64-.43,2.03-.43,2.46.43l.43.43c.43.64.43,2.03-.43,2.46l-.64.43c-.64.43-2.03.43-2.46-.43l-.43-.43c-.43-.85-.21-1.71.43-2.46Z"/><path class="cls-17" d="m686.56,576.63l.64-.43c.64-.43,2.03-.43,2.46.43l.43.43c.43.64.43,2.03-.43,2.46l-.64.43c-.64.43-2.03.43-2.46-.43l-.43-.43c-.64-.75-.43-2.03.43-2.46Z"/><path class="cls-17" d="m698.31,565.96l.64-.43c.64-.43,2.03-.43,2.46.43l.43.43c.43.64.43,2.03-.43,2.46l-.64.43c-.64.43-2.03.43-2.46-.43l-.43-.43c-.43-.64-.43-2.03.43-2.46Z"/><path class="cls-17" d="m713.25,544.82l.64-.43c.64-.43,2.03-.43,2.46.43l.43.43c.43.64.43,2.03-.43,2.46l-.64.43c-.64.43-2.03.43-2.46-.43l-.43-.43c-.75-.85-.43-2.03.43-2.46h0Z"/><path class="cls-17" d="m709.41,556.35l.64-.43c.64-.43,2.03-.43,2.46.43l.43.43c.43.64.43,2.03-.43,2.46l-.64.43c-.64.43-2.03.43-2.46-.43l-.43-.43c-.43-.85-.43-1.71.43-2.46Z"/><path class="cls-17" d="m710.58,530.63l.64-.43c.64-.43,2.03-.43,2.46.43l.43.43c.43.64.43,2.03-.43,2.46l-.64.43c-.64.43-2.03.43-2.46-.43l-.43-.43c-.43-.85-.21-1.81.43-2.46Z"/><path class="cls-17" d="m666.6,585.28l.21-.85c.21-.85,1.07-1.6,2.03-1.28h.43c.85.21,1.6,1.07,1.28,2.03v.85c-.21.85-1.07,1.6-2.03,1.28h-.43c-1.07-.21-1.49-1.17-1.49-2.03h0Z"/><path class="cls-17" d="m638.1,575.99l.64-.43c.64-.43,2.03-.43,2.46.43l.43.43c.43.64.43,2.03-.43,2.46l-.64.43c-.64.43-2.03.43-2.46-.43l-.43-.43c-.43-.96-.21-1.81.43-2.46Z"/><path class="cls-17" d="m634.79,565.53l.64-.43c.64-.43,2.03-.43,2.46.43l.43.43c.43.64.43,2.03-.43,2.46l-.64.43c-.64.43-2.03.43-2.46-.43l-.43-.43c-.43-.75-.43-1.81.43-2.46Z"/><path class="cls-17" d="m633.08,571.3h0c.43-.43,1.28-.43,1.6,0l.43.43c.43.43.21,1.07-.21,1.28l-.21.21c-.43.43-1.07.21-1.28-.21l-.64-.43c-.21-.43,0-1.07.32-1.28h0Z"/><path class="cls-17" d="m636.61,572.15h0c.43-.43,1.28-.43,1.6,0l.43.43c.43.43.21,1.07-.21,1.28l-.32.32c-.43.43-1.07.21-1.28-.21l-.43-.43c-.21-.53,0-1.17.21-1.39h0Z"/><path class="cls-17" d="m676.53,581.12h0c.43-.43,1.28-.43,1.6,0l.43.43c.43.43.21,1.07-.21,1.28l-.21.21c-.43.43-1.07.21-1.28-.21l-.43-.43c-.53-.43-.32-.85.11-1.28h0Z"/><path class="cls-17" d="m655.5,581.97h0c.43-.43,1.28-.43,1.6,0l.43.43c.43.43.21,1.07-.21,1.28l-.21.21c-.43.43-1.07.21-1.28-.21l-.21-.43c-.53-.43-.32-1.28-.11-1.28h0Z"/><path class="cls-17" d="m637.46,569.06h0c.43-.43,1.28-.43,1.6,0l.43.43c.43.43.21,1.07-.21,1.28l-.21.21c-.43.43-1.07.21-1.28-.21l-.43-.43c-.32-.43-.32-.85.11-1.28h0Z"/><path class="cls-17" d="m637.67,562.01h0c.43-.43,1.28-.43,1.6,0l.43.43c.43.43.21,1.07-.21,1.28l-.21.21c-.43.43-1.07.21-1.28-.21l-.53-.43c-.21-.43-.21-1.17.21-1.28h0Z"/><path class="cls-17" d="m651.44,580.37h0c.43-.43,1.28-.43,1.6,0l.43.43c.43.43.21,1.07-.21,1.28l-.21.21c-.43.43-1.07.21-1.28-.21l-.43-.43c-.32-.11-.32-.85.11-1.28h0Z"/><path class="cls-17" d="m651.23,583.89h0c.43-.43,1.28-.43,1.6,0l.43.43c.43.43.21,1.07-.21,1.28l-.21.21c-.43.43-1.07.21-1.28-.21l-.43-.43c-.32-.32-.11-.85.11-1.28h0Z"/><path class="cls-17" d="m689.45,573.33h0c.43-.43,1.28-.43,1.6,0l.43.43c.43.43.21,1.07-.21,1.28l-.21.21c-.43.43-1.07.21-1.28-.21l-.43-.43c-.53-.43-.32-.85.11-1.28h0Z"/><path class="cls-17" d="m643.44,577.27h0c.43-.43,1.28-.43,1.6,0l.43.43c.43.43.21,1.07-.21,1.28l-.21.21c-.43.43-1.07.21-1.28-.21l-.43-.43c-.32-.43-.11-1.07.11-1.28h0Z"/><path class="cls-17" d="m641.3,582.83h0c.43-.43,1.28-.43,1.6,0l.43.43c.43.43.21,1.07-.21,1.28l-.21.21c-.43.43-1.07.21-1.28-.21l-.43-.43c-.43-.43-.43-.85.11-1.28h0Z"/><path class="cls-17" d="m647.28,587.1h0c.43-.43,1.28-.43,1.6,0l.43.43c.43.43.21,1.07-.21,1.28l-.21.21c-.43.43-1.07.21-1.28-.21l-.43-.43c-.32-.43-.32-1.07.11-1.28h0Z"/><path class="cls-17" d="m633.51,581.76h0c.43-.43,1.28-.43,1.6,0l.43.43c.43.43.21,1.07-.21,1.28l-.21.21c-.43.43-1.07.21-1.28-.21l-.43-.43c-.32-.43-.32-1.07.11-1.28h0Z"/><path class="cls-17" d="m633.51,562.01h0c.43-.43,1.28-.43,1.6,0l.43.43c.43.43.21,1.07-.21,1.28l-.21.21c-.43.43-1.07.21-1.28-.21l-.53-.43c-.53-.43-.21-1.17.21-1.28h0Z"/><path class="cls-17" d="m631.27,567.77h0c.43-.43,1.28-.43,1.6,0l.43.43c.43.43.21,1.07-.21,1.28l-.32.21c-.43.43-1.07.21-1.28-.21l-.43-.43c-.21-.43,0-.85.21-1.28h0Z"/><path class="cls-17" d="m635.22,557.53h0c.43-.43,1.28-.43,1.6,0l.43.43c.43.43.21,1.07-.21,1.28l-.21.21c-.43.43-1.07.21-1.28-.21l-.43-.43c-.32-.43-.32-1.07.11-1.28h0Z"/><path class="cls-17" d="m694.57,569.91h0c.43-.43,1.28-.43,1.6,0l.43.43c.43.43.21,1.07-.21,1.28l-.21.21c-.43.43-1.07.21-1.28-.21l-.43-.43c-.53-.11-.32-.85.11-1.28h0Z"/><path class="cls-17" d="m703.96,565.75h0c.43-.43,1.28-.43,1.6,0l.43.43c.43.43.21,1.07-.21,1.28l-.21.21c-.43.43-1.07.21-1.28-.21l-.43-.43c-.43-.21-.43-.85.11-1.28h0Z"/><path class="cls-17" d="m714.1,525.93h0c.43-.43,1.28-.43,1.6,0l.43.43c.43.43.21,1.07-.21,1.28l-.21.21c-.43.43-1.07.21-1.28-.21l-.43-.43c-.32-.32-.32-1.07.11-1.28h0Z"/><path class="cls-17" d="m714.53,550.59h0c.43-.43,1.28-.43,1.6,0l.43.43c.43.43.21,1.07-.21,1.28l-.21.21c-.43.43-1.07.21-1.28-.21l-.43-.43c-.53-.32-.32-1.07.11-1.28h0Z"/><path class="cls-17" d="m714.32,539.91h0c.43-.43,1.28-.43,1.6,0l.43.43c.43.43.21,1.07-.21,1.28l-.21.21c-.43.43-1.07.21-1.28-.21l-.43-.43c-.53-.32-.32-.85.11-1.28h0Z"/><path class="cls-17" d="m711.22,541.3h0c.43-.43,1.28-.43,1.6,0l.43.43c.43.43.21,1.07-.21,1.28l-.21.21c-.43.43-1.07.21-1.28-.21l-.43-.43c-.32-.21-.11-1.07.11-1.28h0Z"/><path class="cls-17" d="m713.89,540.66h0c.43-.43,1.28-.43,1.6,0l.43.43c.43.43.21,1.07-.21,1.28l-.21.21c-.43.43-1.07.21-1.28-.21l-.43-.43c-.32-.43-.32-1.28.11-1.28h0Z"/><path class="cls-17" d="m715.28,536.6h0c.43-.43,1.28-.43,1.6,0l.43.43c.43.43.21,1.07-.21,1.28l-.21.21c-.43.43-1.07.21-1.28-.21l-.43-.43c-.64-.32-.43-.85.11-1.28h0Z"/><path class="cls-17" d="m710.37,526.36h0c.43-.43,1.28-.43,1.6,0l.43.43c.43.43.21,1.07-.21,1.28l-.21.21c-.43.43-1.07.21-1.28-.21l-.43-.43c-.32-.32-.11-.75.11-1.28h0Z"/><path class="cls-17" d="m705.46,558.59h0c.43-.43,1.28-.43,1.6,0l.43.43c.43.43.21,1.07-.21,1.28l-.21.21c-.43.43-1.07.21-1.28-.21l-.43-.43c-.32-.43-.11-1.28.11-1.28h0Z"/><path class="cls-17" d="m718.37,530.41h0c.43-.43,1.28-.43,1.6,0l.43.43c.43.43.21,1.07-.21,1.28l-.21.21c-.43.43-1.07.21-1.28-.21l-.43-.43c-.43-.43-.43-.85.11-1.28h0Z"/><path class="cls-17" d="m710.37,537.78h0c.43-.43,1.28-.43,1.6,0l.43.43c.43.43.21,1.07-.21,1.28l-.21.21c-.43.43-1.07.21-1.28-.21l-.43-.43c-.32-.21-.32-.85.11-1.28h0Z"/><path class="cls-17" d="m661.05,583.25h0c.43-.43,1.28-.43,1.6,0l.43.43c.43.43.21,1.07-.21,1.28l-.21.21c-.43.43-1.07.21-1.28-.21l-.43-.43c-.32-.32-.32-1.07.11-1.28h0Z"/><path class="cls-17" d="m657.74,587.1h0c.43-.43,1.28-.43,1.6,0l.43.43c.43.43.21,1.07-.21,1.28l-.21.21c-.43.43-1.07.21-1.28-.21l-.43-.43c-.64-.43-.43-1.07.11-1.28h0Z"/><path class="cls-17" d="m652.83,584.43h0c.43-.43,1.28-.43,1.6,0l.43.43c.43.43.21,1.07-.21,1.28l-.21.21c-.43.43-1.07.21-1.28-.21l-.43-.43c-.53-.43-.53-1.28.11-1.28h0Z"/><path class="cls-17" d="m720.83,536.39h0c.43-.43,1.28-.43,1.6,0l.43.43c.43.43.21,1.07-.21,1.28l-.21.21c-.43.43-1.07.21-1.28-.21l-.43-.43c-.64-.43-.43-1.07.11-1.28h0Z"/><path class="cls-17" d="m703.43,562.22h0c.43-.43,1.28-.43,1.6,0l.43.43c.43.43.21,1.07-.21,1.28l-.21.21c-.43.43-1.07.21-1.28-.21l-.43-.43c-.32-.43-.11-1.07.11-1.28h0Z"/><path class="cls-17" d="m673.01,582.83h0c.43-.43,1.28-.43,1.6,0l.43.43c.43.43.21,1.07-.21,1.28l-.21.21c-.43.43-1.07.21-1.28-.21l-.43-.43c-.32-.64-.32-1.07.11-1.28h0Z"/><path class="cls-17" d="m678.56,580.8h0c.43-.43,1.28-.43,1.6,0l.43.43c.43.43.21,1.07-.21,1.28l-.21.21c-.43.43-1.07.21-1.28-.21l-.43-.43c-.53-.32-.32-1.07.11-1.28h0Z"/><path class="cls-17" d="m711.22,550.16h0c.43-.43,1.28-.43,1.6,0l.43.43c.43.43.21,1.07-.21,1.28l-.21.21c-.43.43-1.07.21-1.28-.21l-.43-.43c-.32-.43-.11-1.28.11-1.28h0Z"/><path class="cls-17" d="m682.61,578.88h0c.43-.43,1.28-.43,1.6,0l.43.43c.43.43.21,1.07-.21,1.28l-.21.21c-.43.43-1.07.21-1.28-.21l-.43-.43c-.64-.43-.64-1.07.11-1.28h0Z"/><path class="cls-1" d="m754.77,455.58c-.43.85,3.1,4.7,6.19,3.95"/><path class="cls-17" d="m704.39,557.74l4.48-5.34-5.34-45.15,1.28-9.29,3.95-8.43,6.94-8.22s8.43-8.43,10.46-10.89,8.86-10.03,11.1-12.92c2.46-3.1,6.62-10.67,7.37-12.7.64-2.03,4.7-8.01,5.55-9.82,1.07-1.81,9.07-29.36,9.07-29.36l9.82-35.33,3.1-9.82-3.1.21-7.37,25.3-12.7,46.86-9.07,15.8-6.19,8.65-9.07,9.82-12.49,11.96s-9.82,12.28-10.46,14.41c-.64,2.24-3.74,12.49-3.52,17.51.32,5.66,6.08,46.75,6.19,46.75h0Z"/><path class="cls-17" d="m566.79,349.37l.64,16.65,5.34,49.32s2.24,13.34,3.31,16.65c.85,3.31,2.24,14.62,4.91,19.32s9.82,12.28,12.28,14.2c2.24,2.24,9.82,6.94,16.65,11.96l6.62,4.91-2.03,4.91-23.38-19.11-7.58-7.58s-4.7-7.37-5.55-11.32c-1.07-3.74-3.74-14.2-4.7-18.89-.64-4.7-5.34-27.97-5.34-35.12s-3.74-46.01-3.74-46.01l2.56.11h0Z"/><g id="hair"><g class="cls-70"><g class="cls-71"><rect class="cls-30" x="278.1" y="82" width="143.7" height="116.1"/></g></g></g><g class="cls-72"><g class="cls-73"><rect class="cls-28" x="355.77" y="143.95" width="49.09" height="59.06"/></g></g><g class="cls-78"><g class="cls-74"><path class="cls-21" d="m384.7,166.7c0-1.4-.8-2.3-1.6-2.3h-20.9c-.8,0-1.6.9-1.6,2.3v31.6c0,1.1.6,2.3,1.6,2.3h20.9c.8,0,1.6-.9,1.6-2.3v-31.6Z"/></g></g><path class="cls-23" d="m334.4,134.4c-.3,3.9,2.2,5.2,3.1,14.2.4,4.5,0,6,3.3,12.9,1.6,3.4,8.7,12.8,11.8,15.5,1.5,1.3,3.7,4.3,6.3,4.5,7.2.5,9.7-1.8,13.8-4.2,1.6-.9,8.6-7.1,13.3-13.7,4.5-6.3,2.9-10.6,3.7-14.8,1-.1,4.8.3,6.6-1.3,3.8-3.3,3.1-8.6,3-9.2-.3-2.2-1.6-6-3.7-6.3-2-.3-3.2,2.5-6.5,2.4-.4,0-1-.1-1.8-.4-2.5-1.1-3.5-4.1-4.5-6.9-.5-1.6-.7-2.7-.8-3.1-1.5-5.8-13.4-10.7-24.8-10-4.6.3-10.9.7-16.2,5.8-5.7,5.2-6.4,12.5-6.6,14.6Z"/><path class="cls-22" d="m334.5,136.5c-.1-.4-.1-2.1.6-2,7.5.6,5.9.3,9,1.8,4.6,2.3,6.7,5.8,6.3,9.2-.5,5.3-.5,1.5-.7,7.6-.1,1.8-2.1,4.1-1,5.7.8,1.2,0,1.5,0,1.5,0,0-3.1-2.6-2.2-4.7.8-2,.2-5.6.2-5.6l-2.9,1.5-5.7.5s-.2-.6-.5-3.8c-.4-4-1.4-6.6-3.1-11.7Z"/><ellipse class="cls-30" cx="343" cy="145.1" rx="2.6" ry="3.5"/><ellipse class="cls-30" cx="364.3" cy="143.2" rx="2.6" ry="3.5"/><path class="cls-22" d="m337.8,152.4c-.1-.4,0-.7.3-1,.8-1,4.5-2.4,3.6.8-1.6,6.2,2,12.3,3.3,13.6.1.1,3.4,3.8,4.1,4.2.2.1.3.2.4.4l5,8.3-3.5-3.5-5-5.9c-.5-.7-3.9-5.7-4.5-6.6,0-.1-1.7-3.6-1.7-3.7l-1.1-3.1c-.1-.2-.3-1.1-.4-1.3l-.5-2.2Z"/><path class="cls-30" d="m356.1,135.23l9.8-4.7,3.6-.2,5,1.7-1.9.7-2.4-.7c-.6,0-2.8.1-3.3.2-1.9.6-7,3.4-7.8,3.7-1.2.3-3-.7-3-.7Z"/><path class="cls-30" d="m347.9,140.1l-.6-1.8c-.1-.1-.2-.2-.3-.3-1.3-.5-4.1-2.2-6.8-3.7-.1-.1-.2-.1-.3-.1h-3.4s0,.2-.4.3l-1.3,1c-.3.3.3.8.7.8l3.5.1,2.65.86,6.25,2.84Z"/><polygon class="cls-24" points="349 159.5 352.2 160.7 348.7 160.4 349 159.5"/><path class="cls-18" d="m349.1,166.6l2.2-1.4c.1-.1,1.7-1,1.8-1l.9.8h.1l1.2-.9c.1,0,2.3.2,2.4.2.5.1,2.6.4,3.3.7.8.4,1.7.9,1.7.9l-3.5.2-8.2.8-1.9-.3Z"/><path class="cls-18" d="m350.5,166.7c-.5-.1.1,2.2,1.7,3.7,0,0,1.9,1.6,4.9,1.4,3.6-.2,5.5-5.7,5.5-5.7l.2-.4h-.6s-3,2-6.9,2.2c-2.8.2-4.8-1.2-4.8-1.2Z"/><g class="cls-54"><g class="cls-56"><rect class="cls-24" x="363.7" y="144.2" width="16.5" height="16.5"/></g></g><g class="cls-55"><g class="cls-58"><rect class="cls-30" x="335.78" y="105.5" width="37.6" height="23.2" transform="translate(1.72 239.3) rotate(-37.38)"/></g></g><g class="cls-52"><g class="cls-53"><rect class="cls-30" x="349.32" y="111.29" width="37.6" height="17.8" transform="translate(40.65 326.87) rotate(-50.34)"/></g></g><g class="cls-59"><g class="cls-57"><rect class="cls-30" x="362.53" y="113.98" width="37.6" height="17.8" transform="translate(43.36 338.02) rotate(-50.34)"/></g></g><path class="cls-30" d="m386.8,121.5s-.8,9.7-8.4,15.5c-7.6,5.8,13-5.1,14.2-12.3,1.2-7.3-5.8-3.2-5.8-3.2Z"/><g class="cls-60"><g class="cls-61"><rect class="cls-30" x="370.83" y="149.47" width="32.5" height="11.8" transform="translate(-26.72 207.71) rotate(-29.08)"/></g></g><g class="cls-82"><g class="cls-83"><rect class="cls-30" x="369.17" y="155.5" width="32.5" height="11.8" transform="translate(-7.68 303.07) rotate(-42.54)"/></g></g><g id="left_lower_leg"><path id="SVGID" class="cls-6" d="m348.2,520.6s13.1,8.5,13.6,15.6c.5,7.2-2.8,18.2,0,21.5s8.5,7.2,7.9,11.5c-.5,4.4,0,16.2-5.1,24.9-2.1,3.6-14.9,6.9-18.2,5.4-4.6-2.3-4.4-2.6-4.6-2.8-1.3-3.3.3-3.6,3.1-12.6,2.8-9,1.5-2.8,2.8-11s-1.5-3.3-9.7-3.6c-7.2-.3-23.6,1-19-11,4.6-12,29.2-37.9,29.2-37.9"/><g class="cls-84"><rect id="SVGID-2" class="cls-5" x="-1199" y="-213.8" width="2393.6" height="3925.6"/><g class="cls-80"><rect class="cls-7" x="312.6" y="517.7" width="61" height="85.6"/></g></g><path class="cls-31" d="m349,542.6s3.3-3.1,5.6.5c2.3,3.6,3.6,18.7,3.6,18.7l2.6-3.1s-2.1-9-2.1-12.3-1-11.8-3.6-11.5c-2.6.5-4.4,1.3-4.4,1.3l-1.7,6.4Z"/></g><g id="left_hand"><g class="cls-81"><g class="cls-85"><rect class="cls-20" x="512.5" y="7.3" width="9.1" height="14.6"/></g></g><g class="cls-86"><g class="cls-118"><g class="cls-87"><g class="cls-88"><g class="cls-96"><rect class="cls-23" x="469" y="-1.8" width="45.3" height="68.8"/></g></g></g></g></g><polygon class="cls-27" points="485 55.1 487.2 68.8 500.4 68.8 500.9 52.8 485 55.1"/></g><g id="right_hand"><g class="cls-44"><g class="cls-90"><rect class="cls-26" x="214.9" y="197.7" width="46.9" height="51"/></g></g><path class="cls-27" d="m231,238.5s3.8,6.2,3.8,13.8,17.9-2.6,17.9-2.6c0,0-7.2-13.8-7.7-15.4-.4-1.4-14,4.2-14,4.2Z"/></g><g id="right_arm"><path id="SVGID-3" class="cls-6" d="m232,250.8s5.4,11.3,5.1,14.4c-.3,3.3-.3,21.5,1.8,26.2,2.1,4.4,6.9,15.1,10.8,16.9,3.8,1.8,18.7-2.8,21-3.8,2.6-1,50-30.5,50-30.5l-6.9-44.6c3.3-.3-27.9,33.1-41.5,39.7-8.5,4.1-7.2,6.7-7.7,6.4-.8-.3-11.3-30.5-11.3-30.5,0,0-1.3,7.1-21.3,5.8"/><g class="cls-92"><rect id="SVGID-4" class="cls-5" x="-1204.1" y="-203.5" width="2393.6" height="3925.6"/><g class="cls-98"><rect class="cls-4" x="230.2" y="226.2" width="91.8" height="85.6"/></g></g></g><g id="suit"><g class="cls-91"><g class="cls-97"><rect class="cls-4" x="34.6" y="55.2" width="476.7" height="554.1"/></g></g></g><g id="stripes"><g class="cls-99"><g class="cls-94"><rect class="cls-30" x="236.88" y="254.04" width="80.59" height="53.1" transform="translate(-3.99 4) rotate(-.82)"/></g></g><g class="cls-93"><g class="cls-45"><polygon class="cls-30" points="53.9 415.7 332.8 415.7 332.8 592.9 51.9 592.9 53.9 415.7"/></g></g><g class="cls-100"><g class="cls-104"><rect class="cls-30" x="326.9" y="203.9" width="110" height="370.8"/></g></g><g class="cls-102"><g class="cls-95"><rect class="cls-30" x="418.5" y="69.5" width="89.7" height="161"/></g></g><g class="cls-106"><g class="cls-101"><rect class="cls-30" x="324.9" y="201.8" width="46.9" height="165.1"/></g></g></g><g id="foot"><g class="cls-107"><g class="cls-118"><g class="cls-105"><g class="cls-103"><g class="cls-89"><rect class="cls-9" x="-1.8" y="583.9" width="56.9" height="53.1"/></g></g></g></g></g><path id="SVGID-5" class="cls-14" d="m11.8,610.3c-.3-2.6-1.8-4.4,0-7.7s7.7-8.7,9.2-8.7,3.3-1.3,8.7,0,13.3,3.8,14.4,5.9c1,2.1,2.6,6.7,2.1,9.2-.5,2.6-2.6,8.2-5.1,8.7-2.6.8-4.4,2.1-7.7,2.6s-10-.8-14.1-3.1c-3.9-2.1-7.5-6.9-7.5-6.9"/><g class="cls-64"><rect id="SVGID-6" class="cls-13" x="-1205.9" y="-206.6" width="2393.6" height="3925.6"/><g class="cls-62"><rect class="cls-13" x="8.2" y="590" width="40.8" height="32.6"/></g></g><path id="SVGID-7" class="cls-14" d="m9.5,615.9s-3.3,3.3-3.6,4.6-.8,4.1,0,5.1c.8,1.3,3.6,4.1,3.6,4.1,0,0,4.4.3,6.9-1.3,2.6-1.5,5.6-3.8,5.6-3.8l-12.5-8.7Z"/><g class="cls-65"><rect id="SVGID-8" class="cls-13" x="-1205.9" y="-206.6" width="2393.6" height="3925.6"/><g class="cls-63"><rect class="cls-13" x="4.1" y="614.4" width="20.3" height="18.5"/></g></g></g><path class="cls-30" d="m627.11,437.54c.11-1.49,1.28-2.99,2.99-2.46,1.92.75,7.37,5.76,7.15,7.26-.11,1.49-4.59,3.84-6.51,2.88-1.71-.75-3.74-6.19-3.63-7.69Z"/><path class="cls-30" d="m627.43,427.08c-.21.43,1.28,2.13,2.67,1.81.32-.11.96-.43.85-.75.11-.75-3.2-1.6-3.52-1.07Z"/><path class="cls-30" d="m627.85,426.55c-.21-.21,5.98-4.7,7.05-9.39.11-.32.21-1.28.21-1.28,0,0-.11,2.67-1.07,4.91-1.71,4.16-6.08,5.98-6.19,5.76Z"/><path class="cls-30" d="m647.07,419.4c-.85,3.52.64,3.95.96,4.16.53.21,1.28,0,1.49-.11,2.03-.75,2.35-3.52,2.03-5.23-.11-.75-.32-1.71-1.17-1.92-.75-.21-1.6.11-2.13.53-.43.32-.64.75-1.17,2.56Z"/><path class="cls-30" d="m627.96,415.77c-.75,3.52.53,3.95.85,4.16.43.21,1.07,0,1.17-.11,1.71-.75,1.92-3.42,1.71-5.12-.11-.75-.21-1.71-.96-2.03-.64-.21-1.39,0-1.81.53-.43.32-.64.75-.96,2.56Z"/><path class="cls-30" d="m651.98,404.77c.21-.11,1.28-.85,1.6-.85,1.6-.32,1.07,3.1,3.74,5.44,1.49,1.28,3.1,1.81,3.1,3.31,0,.32-1.39.21-1.49.43"/><path class="cls-30" d="m635.01,404.13c-.11-.11-.53-.85-.75-1.07-1.92-1.49-.85,1.28-4.48,1.81-1.49.21-2.67,0-3.2.85-.11.21.85.53.85.75"/><circle class="cls-30" cx="639.27" cy="425.59" r=".32"/><circle class="cls-30" cx="642.37" cy="426.44" r=".32"/><circle class="cls-30" cx="641.09" cy="423.99" r=".32"/><rect class="cls-12" x="493.65" y="266.38" width="335.07" height="73.59" rx="12.04" ry="12.04" transform="translate(17.36 -35.3) rotate(3.1)"/><polygon class="cls-15" points="576.96 252.58 572.23 248.99 566.61 250.86 568.55 245.26 565.04 240.48 570.97 240.6 574.43 235.79 576.14 241.46 581.79 243.26 576.93 246.65 576.96 252.58"/><polygon class="cls-15" points="547.69 250.58 542.97 247 537.34 248.86 539.29 243.26 535.78 238.49 541.71 238.61 545.16 233.79 546.88 239.47 552.53 241.27 547.66 244.65 547.69 250.58"/><polygon class="cls-15" points="504.24 357.21 499.52 353.63 493.89 355.49 495.84 349.9 492.33 345.12 498.25 345.24 501.71 340.43 503.43 346.1 509.07 347.9 504.21 351.29 504.24 357.21"/><polygon class="cls-15" points="492.54 258.31 487.82 254.73 482.19 256.59 484.14 250.99 480.63 246.22 486.56 246.34 490.01 241.53 491.73 247.2 497.38 249 492.51 252.38 492.54 258.31"/><polygon class="cls-15" points="484.17 286.85 479.45 283.27 473.82 285.13 475.77 279.53 472.26 274.75 478.18 274.88 481.64 270.06 483.36 275.74 489 277.54 484.14 280.92 484.17 286.85"/><polygon class="cls-15" points="482.17 312.79 477.45 309.21 471.83 311.07 473.77 305.47 470.26 300.69 476.19 300.81 479.65 296 481.36 301.67 487.01 303.48 482.14 306.86 482.17 312.79"/><polygon class="cls-15" points="482.88 337.71 478.15 334.13 472.53 335.99 474.47 330.39 470.96 325.62 476.89 325.74 480.35 320.92 482.06 326.6 487.71 328.4 482.85 331.78 482.88 337.71"/><polygon class="cls-15" points="521.17 249.1 516.44 245.52 510.82 247.38 512.76 241.78 509.25 237 515.18 237.13 518.64 232.31 520.35 237.99 526 239.79 521.14 243.17 521.17 249.1"/><polygon class="cls-15" points="660.76 257.23 656.03 253.65 650.41 255.51 652.35 249.91 648.85 245.14 654.77 245.26 658.23 240.45 659.94 246.12 665.59 247.92 660.73 251.3 660.76 257.23"/><polygon class="cls-15" points="631.49 255.24 626.77 251.66 621.14 253.52 623.09 247.92 619.58 243.14 625.51 243.26 628.96 238.45 630.68 244.12 636.33 245.92 631.46 249.31 631.49 255.24"/><polygon class="cls-15" points="604.97 253.75 600.24 250.17 594.62 252.03 596.56 246.44 593.05 241.66 598.98 241.78 602.44 236.97 604.15 242.64 609.8 244.44 604.94 247.83 604.97 253.75"/><polygon class="cls-15" points="745.89 259.89 741.16 256.31 735.54 258.17 737.48 252.57 733.98 247.79 739.9 247.91 743.36 243.1 745.07 248.77 750.72 250.58 745.86 253.96 745.89 259.89"/><polygon class="cls-15" points="716.62 258.89 711.9 255.31 706.27 257.17 708.22 251.57 704.71 246.8 710.64 246.92 714.1 242.11 715.81 247.78 721.46 249.58 716.59 252.97 716.62 258.89"/><polygon class="cls-15" points="690.1 258.41 685.37 254.83 679.75 256.69 681.69 251.09 678.19 246.32 684.11 246.44 687.57 241.62 689.28 247.3 694.93 249.1 690.07 252.48 690.1 258.41"/><polygon class="cls-15" points="800.42 265.21 795.7 261.63 790.07 263.49 792.02 257.89 788.51 253.12 794.44 253.24 797.9 248.43 799.61 254.1 805.26 255.9 800.39 259.29 800.42 265.21"/><polygon class="cls-15" points="829.46 270.09 824.74 266.51 819.11 268.37 821.06 262.77 817.55 257.99 823.48 258.11 826.94 253.3 828.65 258.97 834.3 260.78 829.43 264.16 829.46 270.09"/><polygon class="cls-15" points="848.67 288.49 843.95 284.91 838.32 286.77 840.27 281.18 836.76 276.4 842.68 276.52 846.14 271.71 847.86 277.38 853.5 279.18 848.64 282.57 848.67 288.49"/><polygon class="cls-15" points="848.01 316.43 843.28 312.85 837.66 314.71 839.6 309.11 836.09 304.33 842.02 304.45 845.48 299.64 847.19 305.31 852.84 307.12 847.98 310.5 848.01 316.43"/><polygon class="cls-15" points="844.68 344.36 839.96 340.78 834.33 342.64 836.28 337.04 832.77 332.27 838.69 332.39 842.15 327.57 843.87 333.25 849.51 335.05 844.65 338.43 844.68 344.36"/><polygon class="cls-15" points="830.01 370.65 825.29 367.07 819.66 368.93 821.61 363.33 818.1 358.56 824.03 358.68 827.48 353.86 829.2 359.54 834.85 361.34 829.98 364.72 830.01 370.65"/><polygon class="cls-15" points="773.9 263.73 769.17 260.15 763.55 262.01 765.49 256.41 761.99 251.64 767.91 251.76 771.37 246.95 773.09 252.62 778.73 254.42 773.87 257.8 773.9 263.73"/><path class="cls-15" d="m527.92,305.48c-.38,1.99-1.4,3.29-3.47,3.18-1.87-.1-2.79-1.24-3.22-3.34l-1.74-8.16h-.2s-2.54,7.92-2.54,7.92c-.62,2.04-1.7,3.07-3.56,2.97-2.07-.11-2.95-1.52-3.11-3.54l-1.46-15.23c-.08-.96-.22-2.19-.19-2.77.07-1.22,1.11-2.19,2.36-2.12,1.05.06,2.1.79,2.18,1.96l1.06,15.65h.17s3.17-10.17,3.17-10.17c.29-1.01,1.15-1.71,2.51-1.64,1.32.07,2.1.86,2.31,1.9l2.09,10.46h.27s2.57-15.44,2.57-15.44c.2-1.15,1.22-1.77,2.27-1.72,1.26.07,2.19,1.14,2.12,2.36-.03.58-.3,1.79-.49,2.73l-3.09,14.98Z"/><path class="cls-15" d="m538.52,289.5c.89-2.61,2.2-3.49,4.47-3.37,2.44.13,3.48,1.11,4.12,3.83l3.91,17.17c.08.34.07.51.06.72-.06,1.19-1.14,2.19-2.36,2.12-1.02-.05-1.86-.78-2.05-1.75l-.84-4.03-7.6-.41-1.27,3.91c-.29.94-1.21,1.57-2.23,1.51-1.26-.07-2.18-1.17-2.12-2.36.01-.2.02-.37.14-.71l5.77-16.64Zm.89,10.64l5.67.31-2.13-10.29-.31-.02-3.23,10.01Z"/><path class="cls-15" d="m557.94,291.16l-4.07-.22c-1.09-.06-1.96-.99-1.9-2.08.06-1.12,1.02-1.95,2.11-1.9l12.63.68c1.09.06,1.96.99,1.9,2.11-.06,1.09-1.02,1.92-2.11,1.86l-4.07-.22-.92,17.01c-.07,1.26-1.07,2.19-2.36,2.12s-2.19-1.11-2.12-2.36l.92-17.01Z"/><path class="cls-15" d="m579.64,292.09c-3.73-.2-5.26,3.39-5.49,7.67-.23,4.35.95,7.64,5.06,7.86,1.22.07,2.29-.18,3.09-.45.73-.23,1.39-.54,2.1-.5,1.22.07,1.85.99,1.79,2.07-.03.61-.34,1.28-1.15,1.78-1.55.94-4.53,1.25-6.46,1.15-6.62-.36-9.26-5.71-8.91-12.26.34-6.31,3.36-11.77,10.01-11.41,1.9.1,3.71.64,4.83,1.25,1.52.76,2.38,1.93,2.41,3.88v1.16c.05,1.77-.94,2.4-2.06,2.34-1.05-.06-1.9-.75-2.03-2.12l-.16-1.51c-.76-.52-2-.86-3.05-.91Z"/><path class="cls-15" d="m591.15,290.98c.07-1.26,1.07-2.19,2.36-2.12,1.29.07,2.22,1.11,2.15,2.36l-.39,7.2,7.09.38.39-7.2c.07-1.26,1.11-2.19,2.36-2.12,1.32.07,2.22,1.11,2.15,2.36l-1.02,18.98c-.07,1.26-1.07,2.19-2.39,2.12-1.26-.07-2.19-1.11-2.12-2.36l.42-7.81-7.09-.38-.42,7.81c-.07,1.26-1.1,2.19-2.4,2.12-1.29-.07-2.19-1.11-2.12-2.36l1.02-18.98Z"/><path class="cls-15" d="m623.6,294.7l-4.07-.22c-1.09-.06-1.96-.99-1.9-2.08.06-1.12,1.02-1.95,2.11-1.9l12.63.68c1.09.06,1.96.99,1.9,2.11-.06,1.09-1.02,1.92-2.11,1.86l-4.07-.22-.92,17.01c-.07,1.26-1.07,2.19-2.36,2.12-1.29-.07-2.19-1.11-2.12-2.36l.92-17.01Z"/><path class="cls-15" d="m637.55,293.48c.07-1.26,1.07-2.19,2.36-2.12,1.29.07,2.22,1.11,2.15,2.36l-.39,7.2,7.09.38.39-7.2c.07-1.26,1.1-2.19,2.36-2.12,1.32.07,2.22,1.11,2.15,2.36l-1.02,18.98c-.07,1.26-1.07,2.19-2.4,2.12-1.26-.07-2.19-1.1-2.12-2.36l.42-7.81-7.09-.38-.42,7.81c-.07,1.26-1.1,2.19-2.4,2.12-1.29-.07-2.19-1.11-2.12-2.36l1.02-18.98Z"/><path class="cls-15" d="m658.96,294.87c.07-1.29,1.07-2.19,2.36-2.12l10.32.56c1.12.06,1.96.99,1.9,2.11-.06,1.09-.99,1.92-2.11,1.86l-8.05-.43-.28,5.19,6.14.33c1.09.06,1.96.99,1.9,2.08s-1.02,1.95-2.11,1.9l-6.14-.33-.31,5.84,8.08.44c1.09.06,1.95,1.02,1.89,2.11-.06,1.09-1.02,1.95-2.11,1.9l-10.35-.56c-1.29-.07-2.19-1.11-2.12-2.36l1-18.5Z"/><path class="cls-15" d="m688.71,298.21l-4.07-.22c-1.09-.06-1.96-.99-1.9-2.08.06-1.12,1.02-1.95,2.11-1.9l12.63.68c1.09.06,1.96.99,1.9,2.11-.06,1.09-1.02,1.92-2.11,1.86l-4.07-.22-.92,17.01c-.07,1.26-1.07,2.19-2.36,2.12s-2.19-1.11-2.12-2.36l.92-17.01Z"/><path class="cls-15" d="m706.16,316.21c-.06,1.19-1.14,2.19-2.4,2.12-1.26-.07-2.18-1.17-2.12-2.36l1.01-18.74c.07-1.22,1.1-2.19,2.36-2.12l5.77.31c4.38.24,7.78,3.48,7.54,7.93-.15,2.85-1.82,4.77-4.05,5.71l3.43,6.45c.19.35.46.94.43,1.42-.07,1.29-1.17,2.12-2.39,2.05-.85-.05-1.56-.7-1.87-1.29l-3.94-7.74c-.51,0-.95-.02-1.5-.05l-1.93-.1-.35,6.42Zm.53-9.91l3.23.17c2.21.12,3.81-1.19,3.93-3.36.11-2.1-1.34-3.61-3.54-3.73l-3.23-.17-.38,7.1Z"/><path class="cls-15" d="m726.63,299.64c.89-2.61,2.2-3.49,4.47-3.37,2.44.13,3.48,1.11,4.12,3.83l3.91,17.17c.08.34.07.51.06.72-.06,1.19-1.14,2.19-2.36,2.12-1.02-.05-1.86-.78-2.05-1.75l-.84-4.03-7.6-.41-1.27,3.92c-.29.94-1.21,1.57-2.23,1.51-1.26-.07-2.18-1.17-2.12-2.36.01-.2.02-.37.14-.71l5.77-16.64Zm.89,10.64l5.67.31-2.13-10.3-.31-.02-3.23,10.01Z"/><path class="cls-15" d="m743.55,316.21l2.17.12.81-15.01-2.17-.12c-1.09-.06-1.96-.99-1.9-2.08.06-1.12,1.02-1.95,2.11-1.9l8.83.48c1.09.06,1.96.99,1.9,2.11-.06,1.09-1.02,1.92-2.11,1.86l-2.17-.12-.81,15,2.17.12c1.09.06,1.95,1.02,1.89,2.11-.06,1.09-1.02,1.95-2.11,1.9l-8.83-.48c-1.09-.06-1.95-1.02-1.9-2.11.06-1.09,1.03-1.95,2.11-1.89Z"/><path class="cls-15" d="m759.13,300.03c.07-1.26,1.07-2.19,2.36-2.12,1.29.07,2.22,1.11,2.15,2.36l-.91,16.97,7.43.4c1.09.06,1.95,1.02,1.89,2.11-.06,1.09-1.02,1.95-2.11,1.9l-9.71-.52c-1.29-.07-2.19-1.11-2.12-2.36l1.01-18.74Z"/><path class="cls-15" d="m776.36,301.2c.07-1.29,1.07-2.19,2.36-2.12l10.32.56c1.12.06,1.96.99,1.9,2.11-.06,1.09-.99,1.92-2.11,1.86l-8.05-.43-.28,5.19,6.14.33c1.09.06,1.96.99,1.9,2.08-.06,1.09-1.02,1.95-2.11,1.89l-6.14-.33-.31,5.84,8.08.44c1.09.06,1.95,1.02,1.89,2.11-.06,1.09-1.02,1.95-2.11,1.89l-10.35-.56c-1.29-.07-2.19-1.11-2.12-2.36l1-18.5Z"/><path class="cls-15" d="m798.57,321.19c-.06,1.19-1.14,2.19-2.4,2.12-1.26-.07-2.18-1.17-2.12-2.36l1.01-18.74c.07-1.22,1.1-2.19,2.36-2.12l5.77.31c4.38.24,7.78,3.48,7.54,7.93-.15,2.85-1.82,4.77-4.05,5.71l3.43,6.45c.19.35.46.94.43,1.42-.07,1.29-1.17,2.12-2.39,2.05-.85-.05-1.56-.7-1.87-1.29l-3.94-7.74c-.51,0-.95-.02-1.5-.05l-1.94-.1-.35,6.42Zm.53-9.91l3.23.17c2.21.12,3.81-1.19,3.93-3.36.11-2.1-1.34-3.61-3.54-3.73l-3.23-.17-.38,7.09Z"/></g></svg>